<mxfile host="65bd71144e">
    <diagram id="0G3UqfUbwiGU8wSynE63" name="ページ1">
        <mxGraphModel dx="1216" dy="1956" grid="1" gridSize="10" guides="1" tooltips="1" connect="1" arrows="1" fold="1" page="1" pageScale="1" pageWidth="827" pageHeight="1169" math="0" shadow="0">
            <root>
                <mxCell id="0"/>
                <mxCell id="1" parent="0"/>
                <mxCell id="32" value="" style="shape=ext;double=1;rounded=0;whiteSpace=wrap;html=1;strokeColor=#ffba15;fontFamily=Comic Sans MS;fontSize=15;fontColor=#000000;fillColor=none;" parent="1" vertex="1">
                    <mxGeometry x="800" y="-260" width="680" height="730" as="geometry"/>
                </mxCell>
                <mxCell id="10" value="" style="shape=ext;double=1;rounded=0;whiteSpace=wrap;html=1;strokeColor=#ffba15;fontFamily=Comic Sans MS;fontSize=15;fontColor=#000000;fillColor=none;" parent="1" vertex="1">
                    <mxGeometry x="345" y="91.7" width="360" height="310" as="geometry"/>
                </mxCell>
                <mxCell id="9" value="" style="shape=ext;double=1;rounded=0;whiteSpace=wrap;html=1;strokeColor=#ffbe19;fontFamily=Comic Sans MS;fontSize=15;fontColor=#000000;fillColor=none;" parent="1" vertex="1">
                    <mxGeometry x="115" y="164.7" width="160" height="190" as="geometry"/>
                </mxCell>
                <mxCell id="2" value="" style="image;html=1;image=img/lib/clip_art/telecommunication/iPhone_128x128.png" parent="1" vertex="1">
                    <mxGeometry x="151" y="200.7" width="91" height="93" as="geometry"/>
                </mxCell>
                <mxCell id="6" value="スマートフォン" style="text;html=1;strokeColor=#666666;fillColor=#f5f5f5;align=center;verticalAlign=middle;whiteSpace=wrap;rounded=0;fontColor=#333333;fontFamily=Comic Sans MS;fontStyle=1;fontSize=15;" parent="1" vertex="1">
                    <mxGeometry x="137" y="308.7" width="120" height="30" as="geometry"/>
                </mxCell>
                <mxCell id="8" value="FrontEnd" style="text;html=1;strokeColor=#d79b00;fillColor=#ffcd28;align=center;verticalAlign=middle;whiteSpace=wrap;rounded=0;fontFamily=Comic Sans MS;fontStyle=1;fontSize=20;gradientColor=#ffa500;" parent="1" vertex="1">
                    <mxGeometry x="445" y="75.7" width="160" height="30" as="geometry"/>
                </mxCell>
                <mxCell id="7" value="UI" style="text;html=1;strokeColor=#d79b00;fillColor=#ffcd28;align=center;verticalAlign=middle;whiteSpace=wrap;rounded=0;fontFamily=Comic Sans MS;fontStyle=1;fontSize=20;gradientColor=#ffa500;" parent="1" vertex="1">
                    <mxGeometry x="149" y="148.7" width="90" height="30" as="geometry"/>
                </mxCell>
                <mxCell id="16" value="" style="edgeStyle=none;html=1;" parent="1" edge="1">
                    <mxGeometry relative="1" as="geometry">
                        <mxPoint x="523.5" y="371.6999999999998" as="sourcePoint"/>
                        <mxPoint x="523.5" y="358.6999999999998" as="targetPoint"/>
                    </mxGeometry>
                </mxCell>
                <mxCell id="17" value="Netrify" style="text;html=1;strokeColor=none;fillColor=#f5f5f5;align=center;verticalAlign=middle;whiteSpace=wrap;rounded=0;fontColor=#333333;fontFamily=Comic Sans MS;fontStyle=1;fontSize=15;" parent="1" vertex="1">
                    <mxGeometry x="570" y="410" width="100" height="30" as="geometry"/>
                </mxCell>
                <mxCell id="23" value="" style="shape=image;verticalLabelPosition=bottom;labelBackgroundColor=default;verticalAlign=top;aspect=fixed;imageAspect=0;image=data:image/jpeg,/9j/4AAQSkZJRgABAQAAAQABAAD/2wBDAAsJCQcJCQcJCQkJCwkJCQkJCQsJCwsMCwsLDA0QDBEODQ4MEhkSJRodJR0ZHxwpKRYlNzU2GioyPi0pMBk7IRP/2wBDAQcICAsJCxULCxUsHRkdLCwsLCwsLCwsLCwsLCwsLCwsLCwsLCwsLCwsLCwsLCwsLCwsLCwsLCwsLCwsLCwsLCz/wAARCADaAPsDASIAAhEBAxEB/8QAGwAAAgMBAQEAAAAAAAAAAAAAAAUBBAYDAgf/xABFEAACAgEBBAYFBwoFBAMAAAABAgADBBEFEiExIkFRYXGBE1KRscEUIzJCcqHRFTRDU2KCorLh8CQzc5KTVLPS8SWDwv/EABoBAAIDAQEAAAAAAAAAAAAAAAAFAwQGAgH/xAA2EQABBAAFAQUHBAIBBQAAAAABAAIDBAUREiExQRMiUWGhFDJxgZHR8COxweEV8VIzQkNEYv/aAAwDAQACEQMRAD8A+twhCCEQhCCEQhCCFBlPNz6sQbum/cw1VNeAB63PZ/fh3yb1x6bbm47g6I9ZjwAmVsd7XexzvO53mJ6yZdq1+2ObuAlGJXjWAYz3j6Lrfl5WQfnbCV11CL0UHgBOGp7Zdwtn25Y9Izejp1IDaas5HPdB4ad8Z/kfAAAPpie02EH2AaRi6zDCdA9EiZQtWh2p69SkVdt1Tb1Vjoe1Tpr4xhRtjITQXqtq9o0V/u4fdO1uxU4mi9gepbRqPauh+6LL8XJxj87WQOp14ofMTzXXsbHn1XpjuUdxmB9QtJj5eNkjWp9SOaHg48RLExysysrKSrKdQVJBB7iI4w9rfRryyAeAFo4D98fGUp6Tmbs3Cb1MWbKdE2x8en9JzCQCGAIOoPEEcQRJi9PEQhKeXnUYg0J3rSNVrU8fFj1CdNaXnS0bqOSRsTdbzkFaZkRSzsFUc2YgAeJMV5G2Kl1XHT0h9d9VTyHM/dFWRlZGUwNrcB9FF4IvgJxVXdgiKzO3JUBJPkI1iotaNUpWbs4u950QDLz6rvdm5t+osubdP1F0VfYJX18Yyo2PlPobnWoH6o6b+enR98ursfBAAY3Mesl9PuUCTG1BF3W+iqjD7djvv9SkSWWVsGR2VhyKnQ/dGuJtZgwrytCpIAtA0I+2BPV+xk3Scaxt71LTqD4NE7KyMysCGUlWB5gjqM9zhtD8zXGVrDnAnj0K2AIIBB1B0II4iTE2yMosDiueKDeqJ9XrXy6v6RzE0sZicWlaytYbYjEjeqIQhIlZRCEIIRCEIIRCEIIRCEIIRCEgwQk+27T/AIagde9a38q/GKqKjfdTSP0jhTp1LzY+zWW9rMWzbB6ldSD2b3xk7IQNmFv1dLkeLEL+MeR/pVtQ8M1jrA9pv6Dxnl8h+FaBFRFVFAVVAVQOoAaaT1IkxGtgBkMgieWVWBBAII0IIBBHfPUIL1JsvZAINmLop5monon7BPKJ2VlZlYFWU6MCNCDNhKeZg05a6nRLVHRsA4+DDsjGvcLe7JwkN3CmvzfDsfDofslGFtC3FIR9XoJ4r1p3p+E0FdldqLZWwZGGoIMyt1NtFjV2qVYewjtU9k9U5WTQtqVWFVsGjAdR7V7DLM9Vs3fj5VCniL6p7KYEgfUJxn7SFO9TQQ13Jm4Fa/xP990RMzMWZmJYkszMdST2kyCQNSY1wNll927KXReaUn63fZ+H/qSNbHUZmf8Aage+fEpchx6BVsPZ9+Xo51ro9cjiw/YB9/vj7HxcfGXdqQDX6THi7d7NzncADkAOrhJiqaw+Y78LSVKEVYZjd3j9vBHCEISsmCIj2zQFarIUfT+bs+0BqD7/AGR5KO1FDYV560NbjyYD4yxWeWSgqjiEQlruB6DP6JBj2mm/Ht9SxS32TwM1gmOPI+Bmtx2L0Y7n61VbHxKiXMQbu1yU4JIe+z4FdYQhFa0iIQhBCIQhBCIQhBCIQhBCJBkyDBCzW0/z7K8a/wDtrLGxdPT5H+iv884bUGmbd3rUf4AJ12M2mVYPWoP8LAx4/er8gsfFtiO//I/yn8mEIjWwRCEIIRIMJR2hm/Ja9xCDfYOgOHQXlvke7+k7YwvcGtUUsrIWF7zsFU2vkUHTHCq1qkMz/qxz3Qe09f8AeieBJJJYkkkliTqSTxJJMZYmy2vpe21ihdfmB2djsO/s/sPW6KsYDisY8y4hOSwf6VPFtqpvqstQOiniDx0/aA7RNSjpYqujBlYBlI5EGZO2qymx6rFKup0I9xHdLuzs44zeisJ9A55n9Gx6/DtkFuHtW9oxW8NuezPMMgyB9D5rRQka6yYmWtRCEIIRKu0NPkeX/pH3iWpT2kdMLK71VfayiSRe+34hQWDlC8+R/ZZmarB/M8L/AEKv5RMqeRPcZrMRd3GxF7KKh/CIzxD3WrO4H/1H/BdoQhFC1KIQhBCIQhBCIQhBCIQhBCIEQhBCQbZTdyam6npHtViJw2Y+5m4/Y+/X7VJ+Ev7bTWvGs9WxkPgw1+ET1P6O2iz9XYj+QI1jyD9Svp8isfc/Qva/MH9lrpMjXXiOXPWcnysSvXfvqXTqLrr7AdYkAJ2C1xc1ozJXaEovtXZy8rS32EY/edBOL7axR9Gq5vHcX4mTCvKeGlVnXa7eXhXMnJrxqWtfjpwRetmPIfjMxbbZdY9th1dzqT8B3DqnbMy3y7A5BVFGlaa67vaT3mVvd7I3q1+ybmeSsviN32l+lnuj8zTDZuD8pcXWj/Do3RB5WuPgOuaHQTPptfIrRa66MdUQBVAD6AD96T+Wc39XR/tf/wApVngnmdqITGncqVY9IO/U5Jln4Qyq95ABegO4fWHPcPwmcIKkqQQQSCDzBHUYy/LOX11Uex//AClLJvOTYbTWiMRo25vaMR1nU85Yqsli7rxsqOIy1pz2kR73XblNNlZuoGLaeI/yWPWB9Q+HV/SOJjQSCCCQwIII5gjiCI6q20gVBbS5YABmQroT2gHSVrVR2rVGOVew7EmBnZznLLgpxCLl2xgNzNq/aTX+Umd0z8CzguRXr2MSn82komGRvLSnLLUD/dePqrUW7YfdxVXrsuQeQBaMFZXGqlWHapBH3RNtuzV8Wr1Vew/vEKPcZJVbqmaFBiMgbWefHb67JRoW0Uc2IUeZ0mxUBQqjkoA9g0mWw09Jl4iacPSqx8E6fwmqEtYg7NzWpbgbO69/jl+eqIQhFi0SIQhBCIQhBCIQhBCISJUydoYmNqpYvZ+rr0JH2jyE6axzzk0ZqOSVkTdTzkFbnK3JxqBrdaidxPSPgo4xDftTMu1CMKU7K/pebnj7pRJJJJJJPMniTGEdBx3eckjnxprdom5+Z4/Pom2ftLGyKXorSxtSpDtooBU66gc4pkor2HdqR3OumlalvbpJdHrdkdSrqdGB5gxlFGyIaGpDYnlsntZPgpe259A9ljADQBmYgeXKeJd2fiUZb2ra7qUCsAmg3lPA8SDG6bM2cn6HePbYzN9xOn3SGS1HCdOSswYfPab2gIy8ys1qO0SZpck4uDQ1qU1Kw6NQCKNXPLkPMzNszMzOx1ZiWYnmSeM7gn7bMgZBR3KgqkNLsyUKGZlRQWZiFVRxJJ6hLQ2dtI8sdh9pkHxl7ZGJoPldg6TgigEck5F/Pq7vGONJVnulj9LOiY08JbNEJJSRn4eCzf5L2l+pXzsT8YfkraX6tP8AkWaSTK/t8vgFd/wsHifT7LNfkraX6pf+RJB2ZtIfoPY9Z+M00iHt8vgEf4WD/kfT7LJ24+TRobqnQMSFLaaEjsIM5TV5OOmTS9T/AFuKnrVhyYTLWI9Vj1uNHRirDvjCtZ7YHPlJb9H2VwLd2leNQP68JMa7KyEJOLcFZTq1O+ARrzK8faIzfA2fZ9LHq8VXdPtXScSW+yfpe1SQYYbEYkjePn+FZcFlOqkqe1SQfunp7LLCGsdnYALq5JOg6tTHOVsvBqquuVrU9GjNpvbwJ6h0hr98SSeGVk3eaFUs1papDJDz4FWcLITFvFzozgIygKQCN7TU8Y9p2lg26AW7jH6tvRPt5ffM56G8ItvorPRMNVfdJUjxE8cJHLWjnOrPdT1r81QaANud1sdeXfyMJlKcrKxyPRWso9U8UP7p4RtjbYqbRchdw8t9NSnmOY++LZKUjNxuE+r4tDLs/un0+qbQnlHR1DIwZSNQykEHzE9SkmwOe6IQhBeonh7K61d3YKiDVmPICeiyqCzHQAEknkABqSZms7NfLfRdRQh+bX1v2275YggMzshwqN242qzM7k8Bdszaltxaujerq4gtysfz6hFvAdwnuqq251qqQs7cgOQHaT2R7ibKoo3bLtLbuB1I6CH9lfjGznxVW6QszHFYxF+snbx6D4JTj4GZk6FU3Kz+kt1AP2V5mNaNkYlehtJuf9vgnkg+JMZSYskuSSbA5BaCvhcEO5Go+f2XhURFCoqqo5BQAB5CI9sU7mRXaOVyaH7ScPdpH8o7Tp9Ni2aDVqvnV7ejzHs1nNaTRKCVJiEHa13NHTcfJJMG70GVQ5Ois3o37N1+H4TUTHR1btD/AOOqYN8/aDSdOYK8Gb3e2XrkBe5pb12SbCrbYWPa/gb/AJ6KltLK+U3kKfmqdUr7Cdek3n1Tlh4xy70q4+jHTuI6kB5a9p5f+pW4AeE0uzcX5NQN4fO26WW9oPUvlJpnitFpb8lWqxOv2S9/HJ/gfnRXFCqFUAAKAAByAHDhPUicMrKqxajZZqSToijTeduwfGIwC45Dla9zmsaXO2AXeeDdQCQ1tQI6i6A++ZrJzsrJJ33K19VaEhQO/rPnKug7IyZh5I7xySGXG2g5RtzHmtiGRhqrAjtUgj7pMyFdltTBqnZG7UOnujvB2n6YrTfoLTwRxoFc9hHbIpqb4xqBzCs1cVjndocNJ9E0ina+LvIMpB0kAW3TrTqby/vlG88lQwZToQQQQeRB4ESrFIY3hwTCzA2xGY3dVkFZlZWUkMpDKRzBB1BmpxMlcmiu0fS+jYPVccxM7mY5xb7KuO79Ks9qHl7OU77LyfQZArY/N3kIdeQf6p+Eb2oxNFrb0WYw+Z1SwYn8HY/HxV7bN27VVQDxtbfb7Cdvn7ojVGsZEX6TsqL4sdJZz7/lGVcwOqKfRJ9lOGvmdTO2yafS5RsI6OOu9++3BfiZ1EPZ4MzzyuLBN25pbxnl8hz90+rrSuuutfooqoPADScLsDCv1L1KGP106De1ZaEmJA9wOYO61roY3t0OAISHI2PcmrUOLF9VtFfyPI/dFjK6MUdWVhzVgQR5GbAzjfjY+Su7agb1W5MveGEvxXnN2fuEms4Mx28JyPh0Wbx8rIxW3qn0B+kh4q3iJoMPOpy16PRtA1esnj4jtESZmz7sQlh06deDgcV7nEqo71sroxV1OqkdRluSGOy3UzlLILc9CTs5Bt4fZa/WTKmDlrl1BjoLU6NqjqPaO4y3Ermlp0nla2ORsrQ9vBSrbF5SlKVOhuYl/sL1eZ0iMBmKqo1ZmCqO1idAIx2yScmodQoXTzZtZx2YqtnUa8d0WMPtBTpHVfKKvqHxWSu52LvZnjMBO8LDTEqCjQ2MAbX62bsHcOqW4QiVzi46ncrWxxtiaGMGwRCEJypESD7R1yZEELK5dHyfIuq06IbeTvRuInCOdtJXu41moFmrV6acWTTX7vjE00deTtIw4rCXoRBO5g4+6u7MxvlGSGYa10aWNryL/VX4+U0glLZddSYdRQgmzV7G7XJ0I8uXlL0TWpTJIfJarDa4hgHidyoMzO0Mg5GTYdehWTVWOrRToT5maViQrEcwCR46TH85Yw9gLi7wVDG5CGNjHXP0RCEI4WXRDiOIJBHEEcwe0QhBC1GFkHJxqrG+nxSz7S8D+MtRTsUn0OSDyFw080EbTNzsDJHNC3tOQywMe7nJL9qY3p6C6j5yjV105lfrD4zOzY8OMymWldWTkV1nVFsIXu6yvly8owoSkgxlI8argETDrsVx4DieA65pNmY/oMWssNHtPpn7RvDgPIaRBjJXZkY1dh0RrVDa9fWB58prByhiEmwjXuCwgudKemwUwhCKVpkQhCCF5ZVYFWAIIIIPEEHqMze0MT5Ld0f8qzVq/wBnTmp8JpYu2wFOICea217vnqDLdSQskAHBSvE67ZYC48t3SnAvOPk1Nr0HPo7B1aNwB8jpNNrMeSRxHMcRNgp1Vdeeg18ZYxBgDg7xVPA5CWvZ0GXqk+2qj/h7wOABqbu16S/GK6bWotquXnWwbTtHIjzmpvpS+qypx0XGneD1EeEy19NmPa9Vg4ryPUy9TCS0pGvZ2TlUxWB0UwnZ19CtVVbXdXXYhBV1BH4GdJl8PNtxG4dKpjq9evX2r3zRUZFGSm/U4I6xyZT2MJQnruhPknVK8y03Lh3gu0JEmVkxRIMmV8y/5Pj3W69ILup9tuA/HynrQXEALh7gxpc7gJDtK/0+U4B6FOtSeIPSPt90pw/s6y6+C64FOVod8kvYD1Vv9E+XD2zRAtha1nyWFcJLT3yAeZVjY+TuO+Mx6NnTr16nHMDx5+UeTHqzIyOh0ZGDKewg6zVYuQuTTXaunSGjD1XHAiLb0Wl3aDgp/g9rWzsXcjj4LsZk8mk0X3VH6rHd71PEGayUNo4PypQ9egvQaDXgHXnuk+6RVJhE/fgqzidU2Is2chZ2ElldGZHVldeBVhoRIj4HPcLGkEHIohDgOcv4Gz3yWS21SMcHXQ6g26dQHZ2yOSRsbdTlLDA+d4YwbpnsqlqsRCw0a1jcQeoHQL9wEYSNJMzj3l7i49VvYYhDG2MdFWzcgYuPZZqN/wChWO1zy9nPymW4niTqTxJPWe+X9p5XyjIKIdaqdUXTkzfWb4eXfOGHjnJyK6uO4Dv2kdVaniPPlHFVggiL3dd1lMQmNuwIo+BsPj1Vfj1HQggg9hHXNVh3jIx6beG8Ro/c68DM1k0nHvupP1G6Pep4qfZGOxrtHuxyeDj0qfaHBh7vZPLjBJEHjousLlMFgxP67fMJ5CEIlWuRCEgkAEkgAcSSeAHaYIREW18oWOuMh1Wpi1h6jZppp5f3ynXO2qNGpxTqeTXDkO6v8f8A2ExOgOvjGtSsQe0f8lm8UxBrmmCI5+J/hdceo3349Q+vYu93KOkx9k1fGLdlYTUqci1dLbV0RSOKV8+PeeuNJXuSiR+Q4Cu4TWMMWp3Lv26IlbLxKctN19Qy6lHHNT+HbLMJUa4tOYTR7GyNLXjMFZPIxcjFfdtXgSd1xrut4Gc67LamD1uyOORU6eRmteuuxWSxQytzDDUGKMnY5GrYrd/o7D/K34xtDca8aZVmLOFSRHXBuPUIx9sclyU/+yse9fwjWm+i8b1ViuOvdPEeI5zK2VW0tu2oyN2MNNfA8p5BZSCpKsORUkEeYnUlKN/ejOX7LiHFp4TomGfoVsIm21dqaMcHkDa/ieivxlWramdVoGcWr2WjU/7hoZWyLmyLrLmABcjgOQAAAEjr1HMk1O4Cnu4nHPAWR55n9lFFJyL6KePzjgNp1KOkx9k1ZRCpQgFCpQr1bpGmkQ7J9At9tltlaMqBKw7BSd46sRr4CPwQRqCCDyI4j7pDeeTIG+Cs4NE1sJf1P7BZbKx2xr7KjroOKH1kPI/DylnZeV6C70Tn5q4gdy2cgfPlGW08T5RTvoNbatWXtZebL8R/WZ2XYnCzFpdylViN2H2Q9nHI+HgtjJlDZuX8pp3XOt1QCv2sOpvxl+JHsLHFrlrYZWzMEjeCuN2NjXjS6tW7CeDDwI4ymdjYJPA3qOwOD7wTGUJ02V7NmlcSVYZTm9oKpVbNwKSGFW+w5NaS+ngDw+6XBJhOXPc/dxzXccTIhkwZIlDaWV8noIU/O26pX2qPrN5dUuO6Vq7uQqoCzE9QEy+VkNlX2WngDwRfVQch+Ms1Ie1fmeAqGJW/Z4tLfeP5muBIGvYJotmYpx6AzjS67R315qv1V8vjFezMX5RfvuPmaCGbUcGfmq/E/wBZo5ZvTf8AjHzS/B6n/sO+X8lJttU8acgdfzT/AMy/GK6LTRdTcP0bhj9nkfumg2gcd8fIre2pX3d5AzLrvLxHDnM3zk9M64tDlUxRnZWe0Z13+YWxBBAIOoIBB7jAkAEkgAcSSdAPMzOrtXKSmqlAgKKE9IwLMQOXA8JUtvyLzrba79gY9EeCjhKjaDydzkEykxmJre6CT9E9yNq4lOorJuflonBAe9z8NYnyc7KyuFjaV9VaahPPrPnK3YOsnQDrPhLuPszMv0Zh6Gv1rB0j9lOft0l1sMNcanc+aUyW7V46GDbwH8lUgCSqqCzMdFVRqSewAR1gbL3Ct+UAXGjJVzCHtc8if78LuLg4uKNa11sI0ax+Lnz7JblKxdL+6zYJtSwpsRD5tz4dP7USYQi9PUQhCCEQhCCF4euuxSrqrKeYYaiL7tj4r6mpmqbsHST2Hj98ZwkjJHx+6clBNWinGUjc1mcnZ2VjK1jFHrXTVlOhGp04qeMpx9tmzdx6qxzstB8kBP4REql2RBzdlQeLHSPKsrpI9T1j8QrxwzdnF5fUqJKs6cUZlParEe6aVtnbPfTeoTUADVdVbgNOa6Ss+xcU67llyeasP4hr98hF6J2zgrLsIsM3YQfmlaZ+0E5ZFh+0Q38wMrsxZmY6asSx0AA1PcI1bYlo+hkIe50I9xM4tsjPXl6FvB9P5hJWT1xu0gKCWpdIye0kD5qpRfZj2pah4rrqDyZTzBjMbb0543+2z8Viq2q2l2rtXdddNRwPA8dQRPHH28J2+CKbvOGahit2K2bGHLyy+6dfltOvGfysU/CT+W6v+ns/3rFJxswc8a//AI2+AkfJ8r/p7/8Aif8ACQey1/wq3/kbo/1/Sb/luvqx3/3r+E8nba9WMfO0f+MV/Jsv/p7/APjf8J4eu2ogWVuhI1AcaEjwM9FWuTkP3/teHEboGZOXyH2VzL2lblVioVitN7ebRixbTkDwEow7+yXK9m59qq4rVVYBhvsFOh7ucsDs4G5cBUnGe4/Vu4rnXmZdVYqqs3EBJ0RVBJPMk6azm9+TZ/mXWsOxnYj2a6S+uxss/SupXwDMfhO6bEr/AEmRYe5FVR9+srmeu057Z/BXG0rzwGkHLzKSwmjTZWzk0JrZyP1jsfu4D7ot2tj1020NWioj1FdFGg3lPYPETqO4yR+hoXM+GSwRGV5CpUUX5Nno6VBbTeO8wUADhrqY0p2KToci792kf/pvwlHZ1no83GPUzGs/vgj8JqJXuTyRu0tOQV3C6cE8ZfIMyCq1GHiY3+VUoPrHVnPizcZYkwiouLjmStIxjWDSwZBEIQni7RCEIIRCEIIRCEIIRCEgwQke23Jux6+pamfzZtPhKmz0383EHUrmw/uKTOu1m3s2weqlS/w73xnrY665hPqUOfaVEdt7lX5fusdJ+riGX/0PT/S0EmRJiRbFEiTCCFQ2jh/Ka99APTVg7n7Q61PwmcI5gjtBB9xmxibamCellVL33KP5wPfGVOxp/Tdx0SDFaOsdvGNxz9102Xnb4GNc3zij5pj9dR9UntEazHgspDKSGBBBHAgjiCDH+JtKq2lzewSyldbOxhy3lHwnlusWnWwbFGGYgHt7KU7jg+St5ORXjVNbZroOCgc3Y8lEzF11mRa9th1Zj5KByA7p1zMt8u3fOorXhUnqjtPeeuecXFsy7RWhIUcbX9Re7vPV/SWq8IgYXv5S69bdckEUXHTz81Y2bhfKbPS2A+gqbkeVjj6vgOv2TRTxVVXSiV1gKiAKoHUJ0iyeYzOz6LR0qjasekcnkohCErq6iK9tJrj0v6loHk6kfhGkpbUXewsj9n0bDycSaA6ZGnzVS6zXXePIrOIxR63H1HRx+6QZrwdQD28fbMceR8DNbjtvUY7etVWf4RL+ID3T8UlwN272/D+V1hCEVLSohCEEIhCEEIhCEEIhCEEIkGTIMELNbT/Psrxr/wC2ssbF/OMj/RX+acNqgjNvPrLUw/2ATrsZtMq1fXoOn7rAx4/er8gsfH3cR3/5H+VoISJMRrYIhCEEIkEDQyZytuqpRrLWCounE9Z7AOes9AJ2C8JAGZSPaOAaGN1Q+YY9ID9GxPLwPVF0t5ubZltpxWlT0E14k+s2nX/fjU7e4anuHLUzRQB4jHacrB3HROmJg4/OF7pptvsSqoau3byUdbN3CafFxasWoVJx63c/SdutjMvXZZU62VsVdTqCJocLaCZShG0S8DivU3en4SnfbIQMvdTTB3wNcQ73zx/Xmr8JEmKFqUQhCCESrtD8yzP9I+8S1Ke0mC4WV3qqjxZgJJF77fiFBZOULyfA/sszNVg/meF/oV+6ZU8ie4zV4ilMXEU/VoqH8IjTEPdas7gg/UefJd4QhE61KIQhBCIQhBCIQhBCIQhBCIaQhBCRbar0tx7dOD1ms+KHX4ylhWijKx7CdF391/suN2PtoY5ycZ1UfOIfSV95A5eczMd1HCWHQfgshibHV7Qlb13+Y/PVbESYnwNp1hFpyW3WUBUsOujDq3j2xoLaSNRZWR2h1098UyROjdpcFpoLMc7A5hXSRKt2fg0g71ysw+rX02/h4ffFeTte+wFcdfRKfrnQ2Ed3UPvncdeSTgKKe/BAO87M+ATTLzsfEGjnesI1WtSN7xbsEz+TlX5T79rcBruIv0EHcJwJJJYkkk6sSdST2kmW8TAyMshuNdGvGwji3dWDz8Y1jgjrDU47+P2Wbntz339mwbeH3XCii7Js9FSurcCxP0UHrMZosbBx8apq9A5sGlzOAS/Vpp2dgnajHoxqxXUu6vMnmWPax7Z1i6xadKchsE8o4c2uNT93LP5+znx962kFqOZHNq/Hui8EqQykgg6gg6EEdYM2Gg+EUZuygd63FGh5tVyB+xLNe4MtEn1S+9hZB7Wv9Psowtqg7teUQDyFvUftge+OAQQCCCCNQQdQZjmVlJVgVYHQhgQR4gyzjZuVi8K23q+ut9Svl2TqekHd6Nc1MWdH3J9/Pr81qYRbRtbEsAFmtTde9xTyYfhLy30ONVtrYdodT8YsfG9hycFoYrEUozY4Fe4q21cBXTQDxd/SMOxV4D2n3S3kZ2JQCWsVm06KVkMx9nATO5F9mRa9tn0m4ADkqjkolunA5zw8jYJXilxjIjE05k+i5ohseusc7HVB+8dJsFGgAHIaAeAiDZGObLzkEdCnUKe2xhpw8B75oBPb8mp4aOi5waAsiMh/7v2CIQhF6eohCEEIhCEEIhCEEIhCEEIhCEEKNIn2js1mZr8calulZWOZPrL8RHMgyWKV0TtTVWsVmWGaHrHHUEg6gjgQRoQe8HjDQd0fbWRPQK+6u/vAb2g3tOzXnEcfwy9qzVksTag9nkMeeeS88BOtONlZB+ZqZh1ueig/ePCXdl11Pc++iNooI3lB0OvMax+JXs2jEdICvYfh7bI1udkErxdkU17r5JFr8wgGlanwPE+fsjQADgOAHICEmJ5JHSHNxWqhrxwN0xjJEIQkanRCEIIVXJwsbKHzi6OBorroHHnEuRszMp1KD0ydtY6QHevP2TSSJYisvh44S+zh8NjdwyPiFjuRIPAjmDwI8RI0E0m0q6jRaxRCwXUMVBI8DM72R5BL2rdWWSyNuD2eTRnmolnFwsjLYboK0/WtI4adidpnvZ6I+VWrqrLoTowBHsM0ugA0AGg5aStbsmLutHKuYbSbZze87Dp/a50U10VpVWNEQaDtPaSe2dYQiUnM5lbFrQ0ZBEIQni9RCEIIRCEIIX//2Q==;" parent="1" vertex="1">
                    <mxGeometry x="445.5" y="164.7" width="155.78" height="135.3" as="geometry"/>
                </mxCell>
                <mxCell id="24" value="React" style="text;html=1;strokeColor=none;fillColor=#f5f5f5;align=center;verticalAlign=middle;whiteSpace=wrap;rounded=0;fontColor=#333333;fontFamily=Comic Sans MS;fontStyle=1;fontSize=15;" parent="1" vertex="1">
                    <mxGeometry x="445" y="308.7" width="155" height="30" as="geometry"/>
                </mxCell>
                <mxCell id="27" value="" style="endArrow=classic;html=1;entryX=1;entryY=0.5;entryDx=0;entryDy=0;exitX=0;exitY=0.5;exitDx=0;exitDy=0;strokeWidth=5;strokeColor=#696969;" parent="1" source="10" target="2" edge="1">
                    <mxGeometry width="50" height="50" relative="1" as="geometry">
                        <mxPoint x="635" y="434" as="sourcePoint"/>
                        <mxPoint x="685" y="384" as="targetPoint"/>
                    </mxGeometry>
                </mxCell>
                <mxCell id="31" value="BackEnd" style="text;html=1;strokeColor=#d79b00;fillColor=#ffcd28;align=center;verticalAlign=middle;whiteSpace=wrap;rounded=0;fontFamily=Comic Sans MS;fontStyle=1;fontSize=20;gradientColor=#ffa500;" parent="1" vertex="1">
                    <mxGeometry x="1081" y="-278" width="160" height="30" as="geometry"/>
                </mxCell>
                <mxCell id="33" value="" style="shape=ext;double=1;rounded=0;whiteSpace=wrap;html=1;strokeColor=#ffba15;fontFamily=Comic Sans MS;fontSize=15;fontColor=#000000;fillColor=none;" parent="1" vertex="1">
                    <mxGeometry x="840" y="90" width="240" height="311.7" as="geometry"/>
                </mxCell>
                <mxCell id="36" value="" style="endArrow=classic;html=1;entryX=1;entryY=0.5;entryDx=0;entryDy=0;exitX=0;exitY=0.5;exitDx=0;exitDy=0;strokeWidth=5;strokeColor=#696969;" parent="1" source="33" target="10" edge="1">
                    <mxGeometry width="50" height="50" relative="1" as="geometry">
                        <mxPoint x="355" y="256.70000000000005" as="sourcePoint"/>
                        <mxPoint x="252" y="257.20000000000005" as="targetPoint"/>
                    </mxGeometry>
                </mxCell>
                <mxCell id="39" value="Web API" style="text;html=1;strokeColor=#666666;fillColor=#f5f5f5;align=center;verticalAlign=middle;whiteSpace=wrap;rounded=0;fontFamily=Comic Sans MS;fontStyle=1;fontSize=15;gradientColor=#b3b3b3;fontColor=#121212;" parent="1" vertex="1">
                    <mxGeometry x="738.0000000000001" y="205" width="85" height="30" as="geometry"/>
                </mxCell>
                <mxCell id="41" value="" style="rounded=0;whiteSpace=wrap;html=1;dashed=1;fillColor=none;strokeWidth=2;" parent="1" vertex="1">
                    <mxGeometry x="878.5" y="148.7" width="161.5" height="204" as="geometry"/>
                </mxCell>
                <mxCell id="42" value="FastAPI" style="text;html=1;strokeColor=none;fillColor=#f5f5f5;align=center;verticalAlign=middle;whiteSpace=wrap;rounded=0;fontColor=#333333;fontFamily=Comic Sans MS;fontStyle=1;fontSize=15;" parent="1" vertex="1">
                    <mxGeometry x="897.65" y="300.77" width="120" height="30" as="geometry"/>
                </mxCell>
                <mxCell id="46" value="" style="shape=ext;double=1;rounded=0;whiteSpace=wrap;html=1;strokeColor=#ffba15;fontFamily=Comic Sans MS;fontSize=15;fontColor=#000000;fillColor=none;" parent="1" vertex="1">
                    <mxGeometry x="1159.5" y="90" width="277.5" height="311.7" as="geometry"/>
                </mxCell>
                <mxCell id="47" value="" style="shape=image;verticalLabelPosition=bottom;labelBackgroundColor=default;verticalAlign=top;aspect=fixed;imageAspect=0;image=data:image/jpeg,/9j/4AAQSkZJRgABAQAAAQABAAD/2wBDAAsJCQcJCQcJCQkJCwkJCQkJCQsJCwsMCwsLDA0QDBEODQ4MEhkSJRodJR0ZHxwpKRYlNzU2GioyPi0pMBk7IRP/2wBDAQcICAsJCxULCxUsHRkdLCwsLCwsLCwsLCwsLCwsLCwsLCwsLCwsLCwsLCwsLCwsLCwsLCwsLCwsLCwsLCwsLCz/wAARCAC7ALsDASIAAhEBAxEB/8QAGwABAAIDAQEAAAAAAAAAAAAAAAEHBAUGAwL/xABEEAACAgEBBAMKDAUDBQEAAAABAgADBBEFITFBElFxBhMUIjJSYYGRsRY0VXJ0k5Shs8HR0kJUYuHwFSOCQ1Njc/GS/8QAHAEAAgMAAwEAAAAAAAAAAAAAAAUDBAYBAgcI/8QAMhEAAQMBAwkIAwEBAQAAAAAAAQACAwQFEUESEyExUXGBobEVIjJSYcHR4QYU8PEjkf/aAAwDAQACEQMRAD8AtuIiCEiIghIiIISIiCEiIghIiIISIiCEiY+XmYeDQ+Rl3JVSugLPrvY8FVRvJ9AE4raPdrl2Fq9mUimvXQXXhXub0qnkD16yKSZkfiKu0tDPVn/kNG3Bd7I1Gumo16tRrKfyNpbUyyTk5uVaDv6LWuEHYikL90xPfKZrhg1PG/jriO9Jcd1/uFdkSnMfO2jikHGy8mn0V2uFPauun3Totn92e0aSibQrXKq1ANlYWu9R16DRD7B2yRlYw+LQq89gzxi+Mh3I/wBxVgxMTA2jgbSpF+HctiDQOOD1sf4bEO8GZcuAgi8JA5rmEtcLiEiInK6pERBCRErTug7oMraORdRRaybPrZq0Stivf+idDZYRvIPIcNPTOrnBoVSqqm0zcp2s6grEOXhKSrZOOCNxBurBHaCZHhuB/N4319f6ym9F6h7BGg6h7BIs76JP2y7yc/pXJ4bgfzeL9fX+seG4H83jfX1/rKdqqsuOlFNlxHEUVPbp9WDPqyi+ka3419I676LKh7XUCGd9Fz2w+6/I5/SuDw3A/m8X6+v9Y8NwP5vG+vr/AFlN6L1D2CNF6h7BDO+i47Zd5Of0rk8NwP5vG+vr/WPDcD+bxfr6/wBZTei9Q9gjReoewQzvojtl3k5/SuTw3A/m8b6+v9ZjZu2NmYONdkvkU2CtfFrqtRrLHO5UUA8/78pUmi9Q9gjQDgB90ilqMht9ye2E+S1arNZNzRpcb8Pk/JwWdtPambtXIORktuGopqUnvdKH+FB7zz+4YURFLiXG8r1uONsbQxguASIkThd1MREELJwc/M2dkJk4lhSxdzA6lLE13pYvMf4NDLR2RtXG2viJkU+K6noZFJOrU26alT6DxU8x7BUs2mwdqNsraFNxY+DXFaMxeXemO5+1Tv7NeuWqacxuuOopLatnNqoy9g745+nwrXiQCCAQQQeGnAyY5WBSIiCF4ZhK4uYynQrj3kEcQQhMpocF7B7pcmb8Tzvo2R+G0pscF7B7pBLgs5bPiZx9k9RPAAAakk7gABznc7D7kalSvK2wgstYBq8Mn/aqHEd+08puscB6eM1fcfs5MzaVmVaoarZyo6AjccmzUIf+IBPbp1TtNs7Uq2RhPksA9jEVY9ZOnfLSCRrpyG8ns9MGNF2UV1s+ljEZqJtQ1cMVnolVKBK0SutBoFQKiKPQBoJ9eJYp8l0YEHgykenlKgzdo7R2jY1mZkWWkkkISRUg6krHiieWNmZWHYLcXIsosU8an6OvoYcCPQROc6FObYYHXBmj+wXZd1Oxtg42M2ZWVw8pm0qqpUd7ym4kd6G4elhp6ddZxEyc/aOXtLIOTl2h7OiEUDQIij+FF4Ac5i6g8CD2SJxBOhJquZk0hdG24JJkROiqpJiJSqD3rl65+DwBtHJNi513AAfJUSZE+LXNdVzjilbMO3TdK63hNwvKxcrONbNVT0SynR3I1APUo4TB8Kyyel3+zX5272cJ4xL7Y2tF1yz0lRJI6++5bHGz2LBL9NCdA4AGh/qA3TYznZvMVy+PQx49HQnr6JK6yvKwDSEwop3PvY7Be0jcdx4HceyIkCZK0+5rLbM2Ls6x21sqRsWw8y1DGsE9oAPrm5nJ9wzk7Oz05JtBtP8AlTWZ1kfQuyowV5paEYiqZGjVf1SIiSqksfN+J530bI/DaU2OC9g90uTN+J530bI/DaU2OC9g90glwWctnxM4+y77uGCeAbTYeUc/RuwUV6fnMXu6azvmx0/6fQy2HUX1rB+73zw7ic1acvMwXYAZaLdTrztqBDL2kb/+M6Tuj2Q21sELT0fC8Zjdj9I6B9Ro1ZJ3DpcvSBORpZcFNG0z2fks1/BvVWv5FnzG90tnE2VsdsXDZtm4DM2PQWLY1JJJRSSSVlVWV2VWWU2oyWoStldilXU9TKd8yxtfbaBEXaWeB4qVouRd2BVUH2CRscG60roqllO52cbferR/0nYnyZs/7LR+2c53YYGzsbZmPZjYmLRZ4dUhaimutipqt1BKAbtw9k2fc1i7Xow7L9qZGVZk5TK605Nr2HHqUaKpDE6Md5b1DlNP3cZa9HZuCG8bpPl2DqABqT26t7JM7w3p5VFhpS8tuvC4iJMSqsmoiTEp1DdIK9V/BqtroJKU6wcrgQB1HNRIdQ6Oh4OrKfWNJ9RKy9DIv0Ln3R62ZGGjKdCJ8zd341N+hYEOBoHXjp1GYh2Y+u65dPmHX3y42ZpGlI5KKRru6LwsAAkgKCWJAUDiSeU3tNfeqqq+JRQCes8TPKjEpoPSGrWaadNuWvmjgJkyGWTK0BXqSmMV7nayokxJVLbGrqqUvba6VVIOLWOeio9shV/UrB7iaimybrSNPCM+919K1qlOvtUzqZh7Nwk2fgYOEh1GNSlbN5z8Wb1nU+uZkfxNyGBq8xrJhPO+QaieWCRESRVVj5vxPO+jZH4bSmxwXsHulyZvxPO+jZH4bSmxwXsHukEuCzls+JnH2X3VZbTZVdU7JbU62VuvlK6nUESyth90eHtRK6bmSnPCgPUx0W0+dST19XEeniazj/7I2uLUtpKt9M69ukHBW/l7N2ZnaeGYePeVHim2tSwHobyvvnxi7I2Lgv3zFwMaq3lYlY74Ox21b75W2Pt/ugxVC07Qv6IAAW3oXAAch34MZ62903dLcpVtoWKD/wBmumo//qtA33yXON2Jv2pTk5RZp3DqrC2ptfZ+yaTZkuO+EHvNCkd9uP8ASOrrPD86uzs3I2hl35d5HfLm10Hkoo3Ki+gDd/8AZ4WWW2u1lru9jnV3sZndj1lm3z5kb35SV1lc6qN11wGCiTEAMxVVVmZmCqqglmY7gFA5yNUEAZiqqpZmYKiqCWZjuCqBzM2+TsLKxcBctm1uUlsmpdCKqyAAQw4kfxdvo1O52NsZcIDJyQrZjA6DiuOpG9VPnecfUN3lbkgEEEAggggjUEHcQQZla+2P+gZDpaNZ27vReh/jtnyULxVyaHHD0O316b1WsmbPbGzG2feGrBOLeSaT5h4msn0cvR2TWRjFI2Voe3UV6lHI2Roe3UVESZEkUiSZEmCEnXdxuxzdb/rF6f7VJevADDy7PIe7fyG9V9fVNHsXZF22c1ccdJcaro2Ztq7ilZ4Ip85t4HVvPLfatNVVFVVNKKlVSLXWiDRURRoABL1JDlHLOoLN23X5pn68Z7x1+g++i9IiI1WLSIiCFj5vxPO+jZH4bSmxwXsHulyZvxPO+jZH4bSmxwXsHukEuCzls+JnH2SJMiQJCkmRJghRJkSQGYqqqzMzBVVRqzMdwCgczBCAMxVVVmZmCoqglmY7gqgc52Gx9jLhAZOSA2Yy7huK46kb1U+cf4j6hu8psbY64Srk5IVsxhuG4rjqeKqfO84+obvK3UyFqWpnb4YT3cTt+uq3djWNmbqioHewGz76KIiLEsTo9JSAw1GvOKKOjkrJM3HxOxaaWVsTbyvDLx6Mui3HuGqWDiOKsODL6R/nGcHl412HkW49o8es7iODqd6uvoP+cJYE1W28DwzGNta65GMrOmnF6+LJ+Y/vN62zo6eEMi1jmizLTdHNkyHuu5H+1rjYkyJTW4SelVV19tVFK9K21giDlrzJPUOJ7J5zqu5/A7zT4bav+9kLpSDxroO8Htbj2aSWGIyOyVRr6xtJCZDrwHqun7nMKjAxLaK956aNbYRobLCu9j+Xom7mu2V5OR89PcZsY9aA0XBecSPdI4vebyUiInK6JERBCx834nnfRsj8NpTY4L2D3S5M34nnfRsj8NpTY4L2D3SCXBZy2fEzj7JERIEhSTIkgMxVVVmZmCoqglmYnQKoHOCEAZiqqGZmIVFUaszE6BVA5zsNjbGXCAyckK2Yy6AbiuOp4qp87zj6hu8psbYy4QGTkgNmMNw4rjqeKqfO84+obvK3UyFqWpnb4YT3cTt+uu5buxrGzN1RUDvYDZ6n16b1ESd53TSZfdAuNlVJjV13102a5DN5NnIpUR1dfWOrjQsuyqm1ZszTC86ycAPX2GK0NVVR0rMqQrpsfH00ssG/iqnl6TMh0SxSrDUH2g9YnliZeLnUV5OM/TrfUb9zIw4o45Ec/wBDqfeeg0tCyhZmWi4jXtJ9f7Qk75jMcu9aq6l6W0O8HyW5ETz3jeOPKbexEsUow1B9oPWJrLqXpbQ7wfJbkRLS6Lh9tYQw81+gulOQDfUBwXU+Mg7D9xE1k7Lb2ML8B7ANbMVhcOvoHRXHuPqnHRLUR5D9GK9DsmqNTTAu1jQf7csvZ2H4dmUY5B70Nbcj/wBSaaj17h653egGgAAA3ADgB1CaLubxgmLdlMPGybCqH/xVEqPadTN7L9LHksv2rMW1VGaoLBqbo44/HBbTZXk5Pz09xmxmu2V5OR89PcZsZcSNIiIISIiCFj5vxPO+jZH4bSmxwXsHulyZvxPO+jZH4bSmxwXsHukEuCzls+JnH2SJMAMxVVVmZmCqqglmY7gFA5yBIUAZiqqpZmYKiqCWZjuAUDnOw2NsdcIDJyQGzGXcNxXHU/wqfO84+obvKbG2MuEBk5IVsxhuG4rjqRvVTw6XnH1Dd5W6mQtS1M7fDCe7idv113Ld2NY2ZuqKgd7AbPXf03pG8kaRx0HXOc2vtfpdPExH8XeuRch8rka6yOXWefZxpWTZNRatQIIBvOAG0+wxWgq6uOljy38BtU7X2v0uniYb+LvW+5D5XI11kcus8+zjz8RPoOybKp7KpxTwDecSdp/tCwNVVSVUmXJ/iztmbTytl5HfavGrfQX0k6Lao9zDkfyOksLEy8XOorycZ+lU+o37mRhxRxyI5/oZV8ztmbTytl399q8ep9BfSTotqj3MOR/I6TpaVmipGcj0PHNSUtUYjku1dFZM+XRLFKsNQfaD1ieWJl42dRXk4z9Kt92/cyMOKOORHP8AQ78iYpzS0lrhcQn4IIvC1GRjEdOmwA12q1ZOm4q4Kn3yt7EeprayPHrZ69P61JXSW46JYpVhqD7QesSvNoYfe+6U4p0ItzaLwPOrcC8tp7dYvrGXhp4LS2DPm3SNOq6//wA/1dNi0jGxsXHHCmmuv1gbz7dZ7REugXC4LOucXuLjrK2myvJyfnp7jNjNdsrycj56e4zYzsuqREQQkREELHzfied9GyPw2lNjgvYPdLkzfied9GyPw2lNqGbvaqrMzdFUVRqzMdwVQOcglwWctnxM4+ykBmZVVSzMwVFUEszHcAoHOdhsbYy4QGTkhWzGXQDcVx1I3qp87zj6hu4tjbGXCAyckK2Yy7huK46kb1U+d5x9Q3eVuZibUtTO3wwnu4nb9ddye2NY2ZuqKgd7AbPU+vTeknjygAk6DnwnObX2v0u+YmG/i71vuU+VyNdZHLrPPs40rJsmotaoEEA3nADafYYrQVdXHSx5b+A2qdr7XDCzDxH8Xel9ynyuRrrPV1nnw4cefkRPoOybKp7KpxBAN5xJ2n+0LA1VVJVSZx/+JJkRGyqpERBCz9mbTytl5HfavGqfQZFJOi2qPcw5H8jpLCxMvGzqK8nGfpVvu37mRhxRxyI5/od9XTP2ZtPK2Xkd9q8ap9BkUk6Lao9zDkfyOkTWlZoqRnI9DxzV6lqjEcl2rorJnnZRRaek9aF+j0Q/RXpgdQbTX758YmXi51FeTjP0633b9zIw4o45Ec/7z3mKc0tOS4aQn7XXi9p1rVXUvS2h3g+S3Iiec27olilWGoPtB6xNZbS9LaHeD5LciJ1XK2GyvJyPnp7jNjNdsrycj56e4zYzlCREQQkREELwzAxxM0KCWONeABvJJrbQCcVsXY64SJk5IDZjJoBxXHUjeq/1ecfUP6u7YdIMDwIIPrGk0Lo1btWw0ZSR/eZf8hmljja1nhN9/wAKxS0sUswleLy3V8r4k8dwjQnQTndr7X6XfMTDfxd633KfK666yOXWefZxztk2TUWrUCCAbzgBtPsMUyq6uOljy38BtTa+1w3fMPDfxd633IfK5FKz1dZ59nHn4ifQdk2VT2VTingG84k7T/aFgaqqkqpM5J/iiJMRsqqiJMQQoiTEEKJMRBCztmbTydl399q8ap9BkUk6Lao9zDkfyOksLEy8XOorycZ+lW+7fuZGHFHHIj/Nx31fM7Zm08rZd/favHqfQX0k6Lao9zDkfyOkTWlZoqRnI9DxzV+lqjEcl2pWTPl0SxSrDUH2g9YnliZeNnUV5OM/Srfdv3MjDijjkRz/ALzImKc0tOS4XFPgQReF84FT0+Eqd4LoVbrGhmbPOlSFJP8AEdfVPScLlIiIISIiCEnjdjU3gdMEMNwZdzD0T2iRyxMlaWSC8FctcWm8LT5mxbMmlqas6ygPusZakZ2TzQSRprz/AM10/wACK/lO77PX+6dhEnoHmzozFS90E36hr3nSop421DsqXSVx/wACK/lO77PX+6PgRX8p3fZ6/wB07CIw7Vq/PyHwoP04fL1XH/Aiv5Tu+z1/uj4EV/Kd32ev907CIdq1fn5D4R+nD5eq4/4EV/Kd32ev90fAiv5Tu+z1/unYRDtWr8/IfCP04fL1XH/Aiv5Tu+z1/uj4EV/Kd32ev907CIdq1fn5D4R+nD5eq4/4EV/Kd32ev90fAiv5Tu+z1/unYRDtWr8/IfCP04fL1XH/AAIr+U7vs9f7o+BFfynd9nr/AHTsIh2rV+fkPhH6cPl6rndmdzd2y7++07Ttat9BfS1FfQtUcNdG1BHI/rpN8tKg6nU9vCekSlNO+d2XIbyrEcbYxkt1JERIV3SIiCEiIghIiIISIiCEiIghIiIISIiCEiIghIiIISIiCEiIghIiIISIiCF//9k=;" parent="1" vertex="1">
                    <mxGeometry x="1179" y="182.7" width="110" height="110" as="geometry"/>
                </mxCell>
                <mxCell id="48" value="GoogleMAP" style="text;html=1;strokeColor=none;fillColor=#f5f5f5;align=center;verticalAlign=middle;whiteSpace=wrap;rounded=0;fontColor=#333333;fontFamily=Comic Sans MS;fontStyle=1;fontSize=15;" parent="1" vertex="1">
                    <mxGeometry x="1179" y="300.77" width="110" height="30" as="geometry"/>
                </mxCell>
                <mxCell id="49" value="" style="shape=image;verticalLabelPosition=bottom;labelBackgroundColor=default;verticalAlign=top;aspect=fixed;imageAspect=0;image=data:image/jpeg,/9j/4AAQSkZJRgABAQAAAQABAAD/2wBDAAsJCQcJCQcJCQkJCwkJCQkJCQsJCwsMCwsLDA0QDBEODQ4MEhkSJRodJR0ZHxwpKRYlNzU2GioyPi0pMBk7IRP/2wBDAQcICAsJCxULCxUsHRkdLCwsLCwsLCwsLCwsLCwsLCwsLCwsLCwsLCwsLCwsLCwsLCwsLCwsLCwsLCwsLCwsLCz/wAARCADCAMIDASIAAhEBAxEB/8QAGwABAAIDAQEAAAAAAAAAAAAAAAYHAgMEBQH/xABSEAABAwICBQMMDQgKAwEAAAABAAIDBAUGERIhMUFhUXGzExQiNVV0gZGUodHSBxUWMjRCcnOSk6Kx0yNSYmNkgqSyFyQlJjNDVHXB8DZTg/H/xAAbAQEAAwEBAQEAAAAAAAAAAAAABAUGAwIHAf/EADkRAAEDAQQFCQcEAwEAAAAAAAABAgMEBRESMQYhQXGxEyJRUmGBkaHRFCMyM8Hh8BU0QpIkgrKi/9oADAMBAAIRAxEAPwC20REAREQBERAEREAREQBERAEREAREQBERAEREAREQBERAEREAREQBERAEWipqqWjhlqKqZkMEYze+Q5AcgG8k7gNqg10xtVzF0VqYIItnXEzWunfxaw5taOfM8y9NarluQl01JLUr7tNXTsJ897I2l73NYwbXPcGtHhOpcbrvZGanXOgB5OuYc/M5VJPU1dW8yVM807z8ad7pD4NIrAalOjpEdm4sv0hWpzneRbvtzYu6dB5TF6U9ubF3ToPKYvSqkBWQUxtmMd/IjOoEbtLZ9ubF3UoPKYvSvnt1Ye6lv8pi9KqfJYle/wBJZ1lOfsidJbXt1Ye6lv8AKYvSnt3YO6lv8ph9KqNYlP0lnWUeyJ0lve3eH+6tv8qh9K+e3eH+6tu8qh9KqArE5r8/SmdZR7InSXEL3h86hdbd5VD6y6oKujqQTT1MEwG3qEscn8hKpHJfBm0hzTouGsOadFw5iNa/Fspt2px+LSJsUvXNFU9uxZf7e5rXzmspwRnFVkudl+hN78eHMcFYNmv9svUZ63eWVDGh01NLkJWDZpDLUW8R4ctirZ6OSDWutOkjSQujzPXREUQ4hERAEREAREQBaampp6SCepqJBHBAwySPduaOQcp2Ab/CtyrzHd2c+eG0QuyjhDKiry+NK4ZxsPBo7L94fmry5yNS9SfZ9E6tnbC3v7E/PM8O93yrvVSZHlzKWNx61p89UY2aTstRed58A4+WCtYK+6QAJJAA1knYAvUcp9ISlZCxI40uRDcCtkTJZniKCOWaU7I4GPkf9FgJUlsGEJ65kdZdOqQUjgHRUzSWVE7TrDpXbWtO4DXzb59SUVDQRCCjp4YIm/FhaGg8XEayeJKmJU4cjK1tpwxOVkfOXyKxhw5iaUBzbZO0frnwRn6L3g+ZbxhfFHc/+IpfXU/mvdhpyWzXGja4HItEzXOB4hmZWr3R4b7pU3jd6F2bWzfxTyUqHVdQ/Xg8lIP7mMTf6D+IpvXXw4XxN/oP4im9dTn3RYc7pU30nehffdDhzulTfSd6F3S0KnqeSnBZpur5KQM4WxN3P/iKX8RfDhXE/c/+IpfxFPfdDhzulTfSd6E90WHO6VN43ehfvt9V1PJfU88vL1SAe5TFHc/+IpfxF8OFMU9zv4il/EU/90WG+6VN43ehPdHhvulS/Sd6F+e3VXU8l9Ry8vV4lZVNlvtIC6ottWxgzJe2PqrAOLoS4LztR2EHcrsp62gqwTS1VPOAMz1CVjyOcNOa8264bs12a98kIhqiOxqacBkmf6Yy0XDnHhC9x2pct0rbt3ofrarXc5CoyFnBPUUs0NRTSvinhdpxSRnJzTs5stxG9ehd7NX2acQ1TQ5kmkaeePPqUwG3LPWCN4PnGs+YQrdrmyNvTWikxFRyXpkWzhy/xXuldp6LK6mDW1cTdhz97LHn8V2vmOY4n3VS1puUtouFNXMzLI3aFQxv+bTvIEjcvOOICueN8cjGSRuDmSMa9jgdTmuGYIWarabkH83JSsnj5N2rJTJERQTgEREAREQHw5AZnIAayTsACo2uq311dXVjs86mommHBrnHRb4BkPArpuLiy33J7c82UdU4c4icVRQ2DmCgVcmFWob7Q+BHctLt1Jx+xtBUvwbYmV85ulWwOpKSTQpo3DsZqlusvcDtazdx+Trh7GySOZHGM5JHMjjHK95DWjxkK77dRRW6hoaGEdhTQsiz/OcNbnniTmTzr3Trj1kzSWrWlhSJmpz+G30Nd1ulFaKR1VUuOWehFGzLqk0hGYYwHzncqyuuIbtd3uE0pipiewpYHObEBu097jxPiGxMSXZ91uc7w4mlpnPp6RufY6DTk6QcXkZ82XIvHBUxj0vINm2O2CJJZUveuvd9zaP+5LIFagVmCrKOQmSxGwErIFawVkCrKKUq5YjbnmvhWIKyCsWPvK17FaYlYlbCFspqWoramnpKZodPUP0GBxyaNRc5ziNwGZPMvblREvU4rq1qc7XPje2SN7mSNObXxuLXtI3hzciphYsXzMfHSXd+nE4hsdYcg6MnUBPkMiP0t2/PaM5cCuFOTDcXPqg3MNkhayB7vzQQS4c+ZULex8bnxvaWvY5zHtcNbXNJaWnmUBeQrUVqa7vE4e7mS5C4bhQUlzpJqSpaHRSjMOGWlG8a2yRnlG70HXUNwoai3VdTRVAHVIH6OkB2MjTra9vAjI//AIp/gy6Pq6OWgneXTUGgIi45udTPzDAfkkFvNkuPHdA0xUFyaOyY80cxG9j83xk8xBH7yrqR7qadYH5KRoVWN/JqQAhWpg2rdVWGja4kvo3zURJ1nRidmz7JaqtIVg+x+49Y3dmvJtwa4fvQR5/cplpNvhv6FO1Sl7LyZoiLNlaEREAREQHHdO1l27wrOhcqLB2cwV6XPtbdO8avonKjXMyAPAKltJ1zmn0nQpU5OZF6U+p6mHYmzX2xscMx19DJkf1Wco+5W9dJnU9sutQ0kPhoaqVhG5zYnEKpMKn+8NkH7Q7onq1b92jvv+21nROUihdfEq/mRC0rS+0YWLlcnm5SlxqAHIAswVqBWQKRyGzliNoKyBWsFd1sttfdqoUlHGC4AOmlfmIqeM6tOQjzDafBmLKKUqahrY2q963Ihz6bWjMkAcp1feu+mtV6qw11NbqyRjssn9SMcZ5nTaI86sS0YXs9qEcnUxVVgHZVVS0OcD+qZ71o5tfEr16iroqUB1VU08AOwzysjz5tMhS0qVb8KGLqLXRzsMDb+1fQrA4bxO0aRtkx4NlpnHxCTNcM9NWUhDaumqKcnUOrxvYCeDnDRPgKtFl9w892i26UOfGdjR43ZDzruIpqmLIiKaCQb9CSN4PjaVIZXyM+JpAdXSIvvGcUKczXdaq0W240daWF7IXObI1vvjHI0xu0c9WYzzHNxUqvGEIHh9RaQIphm51KTlDJwiJ96eQZ5c21QlzXsc+ORrmPY5zHseC1zXNORa4HXmFcwzx1TFb4ntHsmauEsuXFGHo6cztrGyu0c2wxtf1ZzvzdFwGXhyVZ1Mzqmoqal4AfUTSzuA2B0ji8geNfCFjklNRsp71at954ihbHke5g+V8V+p2A9jUUtXE8coa0Sj+VTLFUbZLBdQRrYyGRvAsmYVC8KD+8Ft+RWdA5TjE3aK7/ADA6RqrK3VVsVOziRp/nJ3FSkbVPvY/+CXnv6LoGKCEbedTzAPwS8d+xdA1TrR+Qp3qflqTNERZgqwiIgCIiA5bj2vufeVV0TlSz49Q5h9yuq4fALj3pU9G5U+9mocwWbtl2F7O83+iL8LZd6fU24Zbo4hsh/aXdE9Wjfu0d9/22s6JyrbDzMsQWM/tTuhkVk3/tHff9trOicplmuvp3L+ZHLSV2K0oF7G/9KUpmsgVrz3LIFRIpD6RJHeb4Ip6iWCngZpz1EjIYWfnSPOQzPJyq5LLaaazUMVJCA6TVJUzZZOnnIGk88NzRuGSgeAqJtRdKmteAW2+nAjz3TVBLAfA0O8amGK7o+2WiZ0Li2pqntpIHNOTmF4Je8cQAcuJCuoF5mNT5npDLJUVbaCLsv3r6IeLiLF8kUktBaXtDmEx1FWAHZPGosgB1athd4uVQd8ss0j5ZpHySuObpJXOe9x5S5xJWgHYNyzBUmOQuILNipGYWJr2rtU2g8q7aG5XG2yCSiqHxHMFzBrifwfGexP8A3WvPB3LMFWLHoupSPPAjkucl6FrWG/U95heCBFWQhvXEIOYIOoSRk6y0+bZxd5WLrM2WJ12p2ZTQhoq2tH+JDsEh4t38PkqE2+vmttZTV0ROlA8F7R/mRHU9h5x58uRXADDUwDY+Coi37HxyN384K5Kq08iPZkY6rgWjlRzMl/LinEIW6spzR1dbSE59bVEsIPK1jiGnwjIrSFqI5Eel5Mc3ah7OFe39u+RWdA5TfEvaK7/MN6RqhOFu39u+RWdA5TbEvaO7/MN6RqpK792zu4lXP85O4qkjap5gLVSXjv2LoGKCnep1gP4JeO/YugYp9o/t17jvU/LUmSIiy5VhERAEREBz13wKv71qOjcqofHq8AVsVnwOu72n6Mqsnx6vAFktIHYZI9ymy0afhbJvQWFmV9sp5Kl3QyKwr6M7Lexy26r6NygtkZlerQf2h3RSKeXrXZ7yOWgqujKm2Q6+leu/gebefir4V7E/6UpJ7CFgDuK7ZI1yvYRrVXHIfVGSI7UpYnsdtb1nd3j3xrIWnmbECPvK1eyG9w9oWa9EmueeQuHUWj7z41p9jqqaJbxROPZPZBVRjlDC6N/3tXp4+onz2ylrGAk0NR+Uy3QzgMLvAQxaSJ2KmvT81nzSZEh0j95kq8W3J5lbArMFagVkCvMchtpYjaCsgVrBWQKsopSsliNoKtrDr3SWKxucTn1hANfI1uiFUTRI8tjiaXSyuZFC0ay6R5DGtA4khXVQ0zaKioaRpzFNTQ0+Y36DA0lSJX4mohjbeRGtY3beVtigNZfroG73U7jzup4yV44K7L1VNq7tdahpBY+qkawjYWR5RNI5wFwgq5p5Lmoh0ZCqRNRehOB72FT/AG9bvkVfQOU3xJ2ju3zDekaoPhQ53+3fIrOgcpxiTtJdvmB0jVEq3Yqpi7uJRVbcM6JuKsIU5wJ8Eu/fsfQNUIIU4wL8Fu/fkfQNVnaP7de7ie6n5akwREWWKsIiIAiIgNFX8FrO95/5Cq9ezV4FYdSP6tVfMTfyFQZ8erZuWI0ndhki3L9DTWG/Cj+412dmV4tR/Xu6J6mt4Gdpu45aGp6MqJWtgbdLad3Vz4yxwUvujS62XQDfRVPRlTbCdiopN68Ba78VXEvYnFSo5I1yPj2r1ZI9q5JI1Rxyn0qGYwtFwks9zo69oLmRPLZ2N2vgf2L28+WscQFchFFcKQg9TnpKyDcc2Swyt3EcoKpSSNSPDGJzaSKCuLnW5ziY5AC51I5xzJAGssO0jdtG3JaOzqxG+7fkpn9I7KfWtSqp057c02qnZ2oeTfrDWWOpLHh8lFK49aVJGpzduhIRqDxv5do4eSCrzLaG4U2REFVSVLM9ejLDKw6+IKi1bgC0Tuc+iqaijLtfU8hUQj5IkIf9tWTqZzVvjyIdn6URqxIq5FRybUTPemaKVuCstJrQSTkBtJ3KcN9juTSGneG6OfxKPsiP3pSPMveteEbDbHsn6m+qqWEOZLWEP0HcscbQGA8hyJ4rtGx+07VWkNCxt8aq5exFTjceJhDDkwlivFwiczQGlb4JBk/Nwy64kadmr3gPLnyKR4kuzbTbZnteBVVAdBRgHsg9w1yczRr58hvXTdbvbrRTmerkALgeowsyM0zhuY37zsCqq63Wru9W+qqSBq0IYmklkMQOYY3Pxk7z4hLRUvuUzVNTz2tUe0TJcxPDcn1OUH/hZArUCswVZRyGjliPfwmf7wW35us6BynWJO0d2+Zb0jVBMJ/+QW7hHWE83UHBTrEp/sK7/Mt88jF4mdfM1d3EyFoNuqmpu4lYZ5qcYG+C3bvyPoWqCZqd4G+C3bvyPoWq2rn4qde7iKxmFikvREWaKYIiIAiIgNVQM4KgcsMo+yVEHs1KZuAcC07CCDzHUopJGWOew7WktPODksFpc1UWJ+zWnAubLfhVyHFEeoVFNPuimikPyWuGfmzU2e1ksckbtbJGOYeLXDJQ57M1IbRVdWpmwuP5WnAjOe1zPiu/4PMvzResbidTO/lrT6/nYd7UYr2tlTYQKqppKeWaB4yfE90buJacs/CuGSNTy/2l1R/XadhdM1obMxut0jQNTmjlG/hza4bJGotZTPo5lY7LYvYayzbQbUxI6/Xt3nlvj4Lkkj2nJerJGuV7OC9RSmjhmNdBd7xZ3l1DVPjYXaT4XZPgef0o3as+IyPFSml9kWQANrbY1zt76WYsHgjlB/nUPkj26lyvYRsVzT1sjEuRTzUWTQ1y4p40v6U1L5Z95YzvZEtuj2FurC7kdJC0eME/cvKrcfXacObRU0FIDse4momHydIBn2SoWDuKyBVi2tkdmpEZozZ8K4kZfvVV8sjpnqaqqlfPUzSzTPy0pJnl7zlsGZ3cgWIK1ArIFSo5SY+BGphalyG0FZArWCuugoa251MdHRR6cz9bif8ADhj2GWV25o8+wayrKOUqp2tY1XOW5EJTgWjdLXV9wc38nSwdaxk7DNMQ92XMAM/lL3sZVLYbO6HMadZUQxAZ69Fh6s4/ZA8K9a1W2mtNDTUNPmWxgukkIAdNK85vkdlvJ9G5V9iq7MuVy6lC/SpaEPgiIObXyE/lJG5bswAPk571IYuORFUwbL6+uWRvwpwTLxPDBU8wJn1ndju69YPCIGKAjJWTguAxWVsrhrq6qoqBxYCIWn7OfhU+pkvhuJNqNRsXeSVERVBmQiIgCIiAFeJcoCyYyAdjKM+Z42+le2tU8LJ43xu362ne1w2EKntiz/b6VYk+JNab/vkd6eXkn4iLubtWMUk1NMyaI5ObtB2OadrTwK6poXxPdG8ZOHiI5QudzV8jY+Smk6rmr3oppGPa9ty60UkdJWQVjA6M5PAHVI3HsmH0cVx19ioK4ukGcE7tZkiAyceV7DqPmK8POSNwkje5j27HMJBC9CG+zxgNqYhKPz4yGO8Lfe/ct/SW9S1kaRVyXL07PVFIC0c0D+UpV9fueXPhO6AnqU1JINxc6SM+LRcPOuN2Er6djaP693qKWNv9pI7J00fB0Tj/ACZocQ2Mbal/1E3qqc2lstdbZE/sTWWpajNWC/8A1UhjsG4hOxtF4ah34a0OwRiQ7G0PlLvw1NziWwDbVP8AJ5/VWBxThwbat/k9R6iktpqBMnp/ZCWy2bZTKL/ypBXYExMdgofKHeovgwJijkofKHeopwcXYYG2sk8mqfUWJxlhQba2TyWq9Rd2w0iZPTxQkJbdurlEv9FIV7hcT8lD5Q71FkMDYnzGqgHE1L8vNGpj7tcI/wCuk8lqvw0ONMJ5aq2Q8BS1XqLu1kCZO80PDrVt12cK/wBFPAovY/qS5rrjcI2s+NHQsLnO/wDrMAB9AqaW61261Qdb0NO2JhOk8jN0kjtmlI93ZE85UdqcfWSNp61p6yofu0msgjPO55LvsKJ3XFd6urXwl7aWldmHQUpcC9vJLIeyPEahwUhskbfhIr6G17TX/J5re3Ungmff4klxPiqJrJrba5dOR+cdVVRnsI27DHC4bXHYTu3a/eQMHZ5lqB2LLSABJOQUiOU0FPZsdHHgZ3r0nVTU9RW1FNR04znqpWwx8jc9ZeeDRmTzK5qSmhpKampYRlFTwxwxj9FjQ0EqL4Rw/JQMNyroy2tqI9CCJw7KlgdkSHfpu1aXIAByqXLrJJi1GJtaqbNLgj+FvmoREXIpgiIgCIiAIiIDTUU0VQ3RfqI964e+avFqKOeHMlukzc9mseHeFIEyVDadh09oc9ea/pT69PEkw1L4csiJOatD2KWSUVJLmXxNzO0t7E/ZXO60UTt8w4B4/wCQsk/RWsjXmORU8C1jtJifEikRkjXJIxTU2OgO19R9NvqrWcPW1219T9Yz1V1Zo9XJnd4lhHbMLc7yByR7VyyR7VYRwxanbZKvwSM9RazhKznbLW/Ws9RTWWJVpnd4lhHpDTNzv8PuVvIxckke1WecG2R22Wv+uj9Razgiwu2zXD6+P8NTGWVUtzu8Swj0oom53+H3KqezLPJYAnerUOAsPHbNcvr4vw1j/R/hw/51y+vh/CU1tBOnQTW6XWfdcuLw+5V4KyBVnf0f4d/99y+vi/CXZTYMwtTkONG6dw2GqmkkHhZmGfZUplLKmdxGm0roLuajl7k9Sr6KjuFxlEFBTS1MmY0upAaDM98kh7ADnKsXD+EIbc+KtuDo6iuaQ6JjQTT0zstrMxm53EjVuG8ymGCnp42xQRRRRN97HCxrGDma0ALYrGOPDmpkLRt6asRWRpgb5r3+gREXUzgREQBERAEREAREQBERAEREAREQBERAEREAREQBERAEREAREQBERAEREAREQBERAEREAREQBERAEREAREQBERAEREAREQBERAEREAREQH//2Q==;" parent="1" vertex="1">
                    <mxGeometry x="1307" y="182.7" width="110" height="110" as="geometry"/>
                </mxCell>
                <mxCell id="50" value="Instagram" style="text;html=1;strokeColor=none;fillColor=#f5f5f5;align=center;verticalAlign=middle;whiteSpace=wrap;rounded=0;fontColor=#333333;fontFamily=Comic Sans MS;fontStyle=1;fontSize=15;" parent="1" vertex="1">
                    <mxGeometry x="1307" y="300.77" width="110" height="30" as="geometry"/>
                </mxCell>
                <mxCell id="45" value="Scraping" style="text;html=1;strokeColor=#666666;fillColor=#f5f5f5;align=center;verticalAlign=middle;whiteSpace=wrap;rounded=0;fontFamily=Comic Sans MS;fontStyle=1;fontSize=15;gradientColor=#b3b3b3;fontColor=#121212;" parent="1" vertex="1">
                    <mxGeometry x="1050" y="205" width="85" height="30" as="geometry"/>
                </mxCell>
                <mxCell id="53" value="" style="shape=ext;double=1;rounded=0;whiteSpace=wrap;html=1;strokeColor=#ffba15;fontFamily=Comic Sans MS;fontSize=15;fontColor=#000000;fillColor=none;" parent="1" vertex="1">
                    <mxGeometry x="837.25" y="-236" width="600.75" height="236" as="geometry"/>
                </mxCell>
                <mxCell id="54" value="" style="aspect=fixed;html=1;points=[];align=center;image;fontSize=12;image=img/lib/azure2/databases/Azure_Database_MySQL_Server.svg;dashed=1;strokeColor=#ffba15;strokeWidth=2;fontColor=#121212;fillColor=none;" parent="1" vertex="1">
                    <mxGeometry x="1113.5" y="-20" width="48" height="64" as="geometry"/>
                </mxCell>
                <mxCell id="55" value="Azure Database MySQL" style="text;html=1;strokeColor=none;fillColor=#f5f5f5;align=center;verticalAlign=middle;whiteSpace=wrap;rounded=0;fontColor=#333333;fontFamily=Comic Sans MS;fontStyle=1;fontSize=15;" parent="1" vertex="1">
                    <mxGeometry x="1179" y="11" width="210" height="30" as="geometry"/>
                </mxCell>
                <mxCell id="56" value="" style="edgeStyle=segmentEdgeStyle;endArrow=classic;html=1;curved=0;rounded=0;endSize=8;startSize=8;strokeColor=#696969;strokeWidth=5;fontSize=20;fontColor=#121212;exitX=0;exitY=0.5;exitDx=0;exitDy=0;entryX=0.268;entryY=1;entryDx=0;entryDy=0;entryPerimeter=0;" parent="1" source="46" target="53" edge="1">
                    <mxGeometry width="50" height="50" relative="1" as="geometry">
                        <mxPoint x="1170" y="230" as="sourcePoint"/>
                        <mxPoint x="1220" y="180" as="targetPoint"/>
                        <Array as="points">
                            <mxPoint x="1000" y="246"/>
                            <mxPoint x="1000" y="20"/>
                            <mxPoint x="998" y="20"/>
                        </Array>
                    </mxGeometry>
                </mxCell>
                <mxCell id="57" value="" style="endArrow=classic;html=1;entryX=0.358;entryY=-0.003;entryDx=0;entryDy=0;exitX=0.143;exitY=1.013;exitDx=0;exitDy=0;strokeWidth=5;strokeColor=#696969;exitPerimeter=0;entryPerimeter=0;" parent="1" source="53" target="33" edge="1">
                    <mxGeometry width="50" height="50" relative="1" as="geometry">
                        <mxPoint x="355" y="256.6999999999998" as="sourcePoint"/>
                        <mxPoint x="252" y="257.1999999999998" as="targetPoint"/>
                    </mxGeometry>
                </mxCell>
                <mxCell id="58" value="My SQL connector" style="text;html=1;strokeColor=#666666;fillColor=#f5f5f5;align=center;verticalAlign=middle;whiteSpace=wrap;rounded=0;fontFamily=Comic Sans MS;fontStyle=1;fontSize=15;gradientColor=#b3b3b3;fontColor=#121212;" parent="1" vertex="1">
                    <mxGeometry x="869" y="30" width="180.5" height="30" as="geometry"/>
                </mxCell>
                <mxCell id="59" value="" style="verticalLabelPosition=bottom;html=1;verticalAlign=top;align=center;strokeColor=none;fillColor=#00BEF2;shape=mxgraph.azure.database;dashed=1;strokeWidth=2;fontSize=20;fontColor=#121212;" parent="1" vertex="1">
                    <mxGeometry x="899" y="-194" width="90" height="113" as="geometry"/>
                </mxCell>
                <mxCell id="60" value="図鑑DB" style="text;html=1;strokeColor=none;fillColor=#f5f5f5;align=center;verticalAlign=middle;whiteSpace=wrap;rounded=0;fontColor=#333333;fontFamily=Comic Sans MS;fontStyle=1;fontSize=15;" parent="1" vertex="1">
                    <mxGeometry x="1066" y="-74" width="124" height="30" as="geometry"/>
                </mxCell>
                <mxCell id="62" value="" style="verticalLabelPosition=bottom;html=1;verticalAlign=top;align=center;strokeColor=none;fillColor=#00BEF2;shape=mxgraph.azure.database;dashed=1;strokeWidth=2;fontSize=20;fontColor=#121212;" parent="1" vertex="1">
                    <mxGeometry x="1081" y="-193" width="90" height="113" as="geometry"/>
                </mxCell>
                <mxCell id="63" value="ユーザーDB" style="text;html=1;strokeColor=none;fillColor=#f5f5f5;align=center;verticalAlign=middle;whiteSpace=wrap;rounded=0;fontColor=#333333;fontFamily=Comic Sans MS;fontStyle=1;fontSize=15;" parent="1" vertex="1">
                    <mxGeometry x="884" y="-74" width="124" height="30" as="geometry"/>
                </mxCell>
                <mxCell id="64" value="" style="verticalLabelPosition=bottom;html=1;verticalAlign=top;align=center;strokeColor=none;fillColor=#00BEF2;shape=mxgraph.azure.database;dashed=1;strokeWidth=2;fontSize=20;fontColor=#121212;" parent="1" vertex="1">
                    <mxGeometry x="1265" y="-194" width="90" height="113" as="geometry"/>
                </mxCell>
                <mxCell id="65" value="活動記録DB" style="text;html=1;strokeColor=none;fillColor=#f5f5f5;align=center;verticalAlign=middle;whiteSpace=wrap;rounded=0;fontColor=#333333;fontFamily=Comic Sans MS;fontStyle=1;fontSize=15;" parent="1" vertex="1">
                    <mxGeometry x="1248" y="-74" width="124" height="30" as="geometry"/>
                </mxCell>
                <mxCell id="66" value="Netrify" style="text;html=1;strokeColor=none;fillColor=#f5f5f5;align=center;verticalAlign=middle;whiteSpace=wrap;rounded=0;fontColor=#333333;fontFamily=Comic Sans MS;fontStyle=1;fontSize=15;" vertex="1" parent="1">
                    <mxGeometry x="966" y="410" width="100" height="30" as="geometry"/>
                </mxCell>
                <mxCell id="68" value="" style="shape=image;verticalLabelPosition=bottom;labelBackgroundColor=default;verticalAlign=top;aspect=fixed;imageAspect=0;image=data:image/png,iVBORw0KGgoAAAANSUhEUgAAAOEAAADhCAMAAAAJbSJIAAAAYFBMVEUFmYv///8AlIWv1tEAkIAAlocAkoIAj4Dd7esln5KJw7zn8/FfsqhVrqNotax7vbXH4t70+vk1o5dBp5u52taFwrrW6uel0cvC39sjn5KYysTO5eJ4vLO22dTr9fSRx8C3rQpbAAALi0lEQVR4nM1d2ZbqIBCMGIijJmrcHb3+/1/eLEazAFmowqnHmXNCSghdQHcRzOjYLbaP8/KexPv0eg0yXNN9nNyX58d2seM3HzAfvjrcklQoJYTMENSR/0Hk/0qT22XFfAkWw9XhuM/ev8VLh4xpqPbHA4smg+FqngSDyDVoqiCZM1jCGW43ObsR5Go0M5abLfqFsAwf63Aiuw/LcP2AvhOQ4WEdOdKrSEbrA+61UAxPGwGhV5EUmxPozTAM56nC0XuRVOkc8m4Ahv+OSoDplRBi+e8PMFwkEYdfwTFMFl9meIpD9PBsQoax4wfpxHARR1x+BccodupHB4arNbn/3hzDtYPYmcxwt/HEr+S4mbwKmcrwLHjziw5CnL0yPF398is4XqdNOZMY3kPv/HKEd08ML9J/B5YQcsLKYzzDJPoSvxxRQmf4+7UOLCGCXy7D4zc7sES0JDLcpd/twBIiHRUbxzDcAleALpBizIQzguHz+yO0QvRkMIz/wgitIGI4w93PXyKYUfwZ+jEOZLgYtfvZj73zE6QcuKYaxnAL/gTDLWBERMPmm0EM52AdKjcLBXhMOGiragjDG1poh7ML5KsObxiGT8TvXYe4zeaYeUsNiBr9DJfwpZLMhgVo4gr7JVwvwyW6BwORfT5H1NSsein2MXziF7s/2WMTWPAJ+wZqD8MbvAcDlU/yMS68qp7pxs4QHSYyyEJv/QCf2BM0rAy3hP2YsJAiUIUUWkO/jeGCsJiQ5W4S9qeLbALOwnDHWA2qQjDvwJ+3tMhwC8MfAkNZznwrNMOfKQwp60FZPvsXLpPM60UjwyeDoHhNexhZWodZv5kYotdLJa6vp4NkaR3GtZSB4T/Kiv49raNkaR3CMNsYGKaMeVTuq8fDZGn96ekYhkdKF37CFk6W1iCOwxn+Uj5C+TlzAMrSGiLthr+WIWfjN/p8KCmlgSoW9TOkjKFA1lZypL1zqTuZ0jC8cPa2Ra0J1glrdBnEkPMD18/h0bL0A8047TK8cza3r7Um0LL0A9E9CO8wPHFGkKqPnxONYRB20hk6DK+Uhj/BPgdeln7QWWW0GZ45jYeNNSpBlr7RybtpMdxx2m5N4wxZ+kZbn7YYbkhd2MwTZcjSN8TGxvAfZ5qRLcXIkRQVWj9nk+GaFAtbnwZHllaQazPDBacLOx8/SZZWaE5rDYas37ZFkCVLK8jGpk299RNHkKpO8QQv4JeITgaGnC7srr15srRqMtYzJH2FXR3Fk6XvNhdahqRl4bpNkClLq0YTHUNSLAy7RSFMWdpt9cOQs/uk2x5iytKq2aWGIamyp0uQK0s77b4Zcn5YbYY9VZZWDc87DEk6Q0OQLEtfSNsMIUlKHXSDfQ6uLK2aXrQYbiit6jfaybK0hNy0GHK28fVZ534yjUWTISVEScOxpZ96FHFpMKQsDEN9xRldlpaoxNSLIaPR9nZCBb4sLaHqDB+MQaoMR5Z8WVpCPGoMGYNUmLKxPMjSAq9hGtAGqfaoK4cHWVpCfRgisq47jzd6P/iQpQXKwpOCIUMomnN4lr76sNzELBgSnq7MJWZeZGmJiiFh+jYF+xxeZGkBtXoxJHz6hmBfwIssLVAsoQLKsJG2il2PRe7JiyH+0aGtKMlnmXTJEP8ZGoN9Dk+ytED+IWYMD/DP0Bjsc/iSpTnEoWAIj4bCmlruS5bmyCNixnCPZmhJ2J35k6U58vSBAP/lK3vVnDdZmiPMGcJzrnsKWL3J0hzZVBPAR421NGDmUZbmEJeMIfg3tQb7HEkoxsLhbW4ZQ7CiMa3s37jMx+Ix/W0yVROAZaIcUSk/FC7fUZoxxE40upMYV7i8j5oFWBFlD/bT4JSIpnYB9sDi2v/Co+E096pFAN2jsdfJTYObqBTbALlV2syxxMDx8F08gjMwWITOJoddOG7lynOwBLqOjjdx6oVryrJcBnccw4jgzu268JH3ACdp5EgDpyG4uM70MgliCLviYXiCgC2kGOAU88JkY0MLAFnn+wAnS/EEEWfvaYCqPlCaghxXIOZ5WHUFJdj/HXOxgBPsPR7h9EOTY+kMUr7rRGhyLJ0B3+V0QbugAgGY7QhkrmGs7EGT4BUSDxnBHrVxnGI0DZ4g7JRxj9CljGD/RDGMAWsLk5mBC2D7Y9nawn192C2ocAcs2MuN+xr/bwf7bI3vvE/zt4O9PDvvtZlyLF0A9BgTD+f9UoUniHRzE1vXPW9r2sVEIE+J1cL53AJPEJpSpHaOZ0/6ggo3QD24hOv5IWFlv4MuC1PHM2B5fIw+0e3bNgZuUb/OgJ3O8eXoM/moJ3yuoJszxTk+PunLiqinC7HZp0Uuhs88s6B3sQz2Gyzyaei14030nBIjrVuDQo8w8tps6NlXfWB/7ldem4+Szk+b9pUI+FVeuYlepxppFeo38Ku88ktXPnderRlF8PThV46wx9Tynm05aLDPkR9pcnL1zRAWIQsfTO9cfZ85rcJyXRO81ORdb+Ez5ivzGRXecfNdM8OoezLBsqtDqKWZVQw5pepamGXpAT6SyshEqz80wCxLCW196g89SlOjLCWY/dVqSFkuZl2YZSmhQrBeB0yp5ba02gXBHadRy+1tmJpkKSPtolGP722YmmQpof2Wp4KvYiSDLGXYwrZ8MUgeSt1m9bKUYQHf8jbxFfT1shQf7DX+NByPoQ70spTaEtsnqgWtLKU4+3Z8ojwtobRnccy7Qvh+be2GNQQpO2EavzY/dYEaWUpxM9R67pF8ExvQyVKOgZPON9HHdo3OCJPxw+q9L33kc2pkKWXH3eBf6sF0pCtLnQsqtM0YPGhZPsI1dGUppRmjjzC/E0XbWokS7M1e0PwvsXNlOOdaKbOfN32Z2JalwMK5D2ye7PRDmpYsxaZdvBtp+hv5uRuhQkuWci62st6NwFanTYacz74tfT3dUVKh0RYl2PfdUcK6Z6ZEU5Yy7nHVaHtfdwUVaM5ylN9ywF1BrPuecjR8TyhL7iH3PTEPvUVdllJ+yEF3drHuXQuaswCsoKKOgfeu8RaKtd1Simvb0LvzeOO0Jkspv+Lg+w9Jd1jWZSkl2I+4w5K1K/WRpYxgL/SOBz7vkv2INkawH3eXLOn+tbB6PCPYj7wPmHSn8+vhjGA/9k5nzr3clSwlfALj7+Vm3K1eyVLCjzflbvXZ7AeeKViKRsLKXlrsNi0Md/BEunIkwXMsM4aWIg5b3dICPNuUspSwF2Q1o7RWZoHDVrlbit+UtXuo2WvP5lCKhSwFF1RkCO0+fz3VdTfk+6h8/Q0uqMie2lMB2Vc/+AT2Yi5LwQUV2UP7zDZ7KySXuFfKrU1hD3sh7DUY668BXcJ6McIXVPQTHMBw9oT1Inxlb9ZqoxjObqBe3KMPDcIhZdaDKpUxQUOud1gJ0RMmxjDEhH65xG7OGNdLUxjOFgLwctCtCykGuosNraffXf0W0/ZB/Aw12hzuGBD7rTW1Q/VY209iOHv+HQu8aIRr+BjXhy3iYwRAdhIeUAxnu/QvfIwiHeV1O9K54/j9kRqNtLod603yK787UqW0FDBCGM5myTe7MRpvNz3BX2b7tW6UcoLn+yQHnft3ujHquxwEx3B2+oLCET/TfOGmuiCdXe5GmcJvsvvkZJ+n3Sb0eEVcuJns9+7gZLVae+Iow7XlskEiw2xNFUcest+j2MmF2dGN7BST+1GGsaPxpLPf2iKJeHOOCBNnF22Ao9y/peJwFGIJcJ3EeObNUwU/bFQp5t4hlCvgYiOAq0cpxAZl8g70PTysIwhJKdQaaFaIdXZ8rENHklKEa+N915MA9668bAI1kWXWecEG7ivNcOdczZOc5RiaMmMnk7mDdDGCwTDH6nDcq0E0c3Jqf3ww2OVgMSywOtySVGVEM6YtrvkfREZNpcntwCJXgMqwxG6xfZyX93W8T8t8tmu6j9f35fmxXRBuiGrjP99HhJdtBVRiAAAAAElFTkSuQmCC;" vertex="1" parent="1">
                    <mxGeometry x="898.65" y="175.39999999999998" width="119" height="119" as="geometry"/>
                </mxCell>
                <mxCell id="69" value="" style="shape=image;verticalLabelPosition=bottom;labelBackgroundColor=default;verticalAlign=top;aspect=fixed;imageAspect=0;image=data:image/png,iVBORw0KGgoAAAANSUhEUgAAAOEAAADhCAMAAAAJbSJIAAAAwFBMVEX///9Nmr9HoL5LnL9Jnr5Gob5Eo71Ap70+qbxCpb0/qLw8q7w6rbw5rrs/lLxEor32+vyXwddsqsnv9vlzrsvi7vTK3+o5krra6fGMu9OcxNlEl71ZocO51eTr8/ff7PPA2eenyt1/tM+Lw9Nkscevz+B7xs9Qt8JWtcSDxdG+3+ZbssWHwtLP5u1psskwnrl5uc5PpMGg1dtnwcrS6+4cq7aOztWu2uFnu8ldtMYTnLWi0txJq8DD4Oi53OWbzNlEfOBiAAASoUlEQVR4nN2d62LauBKAYy5JSVrHXIwBAQESups2icPpdttubu//Vke2NZJ1l0wAk/mVgmXPpxmNZiSZnpzsUeL//fjry5cf//6zz4fuUeY/fv78ksnPn399SMZvX0ry899Dq/P+8r+fXzjEr4dW6L3lXx4QI/6IDq3Tu8pXERDLXx8JUQX4oRC/qvg+EqIO8MMg6gE/CKJ6DH4gRDPgB0D8+jkTDV3+1ZEjFoBmOWpEF8CjRnQDPGLErxeOhH8fKaGrBT9f3B9a1WribMGL20OrWk1uXQE/fz5OH3UHvPh2aF0rye3FhSPiBS32vx6TLTNAKmbAz33S5tfFEYVUDtAiv0ibPv77aBB9AH9zjY4E8faTByH46Lfin0eB6AUIPhqRf386AkQvwN9Sq/ojegF+gsX9f1iruiP6AT6RVhH3aa0Rbz9l4kr4NzR7o03y9jVGLAA/OWIKPsqanv+pK+Lt+SdRTIC0pPhbbHVeUyveSnxGeQaKJ/m7elrx9vxctqFBXki7WAF4XkfEDDAXN75z6qO/JbpcaodIAd1Azz8BwC8RraaIt2eigmbOcyh75xhW3fSsVoh3qYZQg3pO07Xf2hZnZ9/rg3h3losFsixz0vLbfxq6XGqDSADP3Dlp2auFqxXiXedMEjPgH2jKxyf5NvUYi6//KQiNnP+Bj96f6dkK6Xw/KBuR+duZllGFewYlxcmzvVXnt+nR+5PX7x0XyEKoWe7s156d3R2Sqyz3d2eukLSkcLm482R87F4FO2vqovMbNPjuRPhieube5ZuDsz7DxW9OgGl8SKC7mxcxmP9jc9b/YCctdsDDku4bqix3aSd9fuoLn/afnlM9Y4cGju9ma3eIgMkPMS9ep3kfd+6uxG9e/qRaQ9Ky1zBmOyV5JNc/iw/ZvRSAOeR3aX8svlNPkSnEjbm6BzqipCQuxenNvq3IADM9np/mwvf9p+9lZ+2kWJhFTh6tbOTOpEte0n0jcoCFs47Ea15u8ouw5Tp3r/fx1cvTHxi0r6kNDe5LhsATHvM3e+STAAtnfRUvi687WTSSPu+bsco3JS3usr/3aMXr9PT0VKFO50101ujXzbXc/tGZEALMDX7g6f4Qc8BTBeRp2nl0ODnyovAAtZySgRudXmbPu9yTo1JAJWV6IzmlINGzswlpKCUP2w8iD6igTFPJWTm5dzZhJ32FJhRx9456nV5eXkqMPGWaGp31QTGGZclHHg2lBR+Wh10j5oCXasiS4jgqPGlVsRuR3pFML3cED0t7x45KAfWUwJmeXuuctaM34mmnfDPwyZvSQ9sP+wPUQRJ7nqapBvFaRai4xyULpRzi7hz1utFut0VGPeTpqUaV19SCBoRkLp2XOhZr0NiZFa/TdiESpIayoyGc36SmfqGALJQyvPYOEXMLtrWQCkx9aJ9fX8qTThkul5RE5Kd2CS+XnTgqB6iD5DAvdV6aSfSkMWR5xJFxfN2+FJ7d2AHidavREBl1lKC5LtIQuX8UGIW7tDfkwgfhwViT1rs7ag7Y8IDMvcyWwMXXaZr1h6Y9TH3tBo/X2AEiBVRCajEdtHjFzqqRNgml/YaIVyC+p6NygBpIFWUqreEoBDur3Di/44xc0JDw3tuKEqAOUlRUmX/M5Ur57bIt0mGBUDpT4DVarcfhbgG1kBkm1Td9k2+H3VIuPl43adaKu09KQ6n05Fara45iXtLVAZoogVX208cs9CuKj/tHsTUsYTxIfA+z9xyDV8hIaKF8FO7Wfyjs204fXkUt4ze+LUwWknu+9xsok5YVUU8p+NJrKfA32lLxEeHISr9ukN7p83yTd3RPkE2r5QQpczbWoDq2V3Qv2KiBDSmZY/TYhrBCGt+X8DYL8froPRz2qtlquUOWMFmGnJkGfyFZutHYrMWdj/nbJnvUZkK+eGkRPIV7XnVb7zJpTFotP8YCtNGArbF1W4YrOasYjaLFQ+uNmWbRwA9uNZaSew4HmVLNQXUyesteq1UFEqaKuW6YwoUP0j4oZ9j+RuWeyw1RqTpitwl/xS1OHAEhFsrhXmHwpeisHKK0ZTAaI6ZPc1BtLHZRcwx/r1sVGEGtmVuHXEsYOsm8uCzNalbEgE1EE6NBsyWKVWPStG+7kMrDwkWxOXVP4MOKVkDMALGA7/SRRGihpD766EyI7zcxOWsmo8eWxFcJcVIANlfwwUyNqKVsQWQf+gQnfLtHg7NGsw2nRpMJ8hyLxIK44Qw+Wsl+aqBswRCONn5zTJaVaZSKJy1OhyYnflYEC2YNqZ8aACXMVgN6dOwJ2KDZmiDRQGe+CohdVGrYg08XWj+VOVswwXn5aGFCan5B4i7G0uH5IU5Crh3klthPmyZPLQs1w8YHrZCNtrKNZj3U1OD5IPKAuB0kVVHxbxdCyIa61klFaIgG5sodz/R6QkfESRgI7abw1RDubgOE8DRyNDmVrv2Q13zS1EIGLogYMBOuZ7rwZXmAGvSk2f7GcJEsm7VjwF/0VIy53nZEAsgzIpjboil/U42qYIilD9/KZ2FpNG6iQOZzQGSAZcZgCp07SsSek1VtLsnFsfydViZm9xxK+P1lmbGktRmRAyxBIhrAJ+oxUAak6VrPMfI2NzNREaEUHCLUlF0YO2sByetsQpQAKWNC+3CqJCxhNiH0rl3mT9xsJa9krJJVmWeWdStCY2ndLndWSfSIKkACGQTUT03ROpMJuXDuMq80ZffMJ71mwsw6GtAUcrAQde4vp6EEqUPUAeaQiKbgSzMinVqMeWyBhzbSMhLMBRDcRuNp6XkBmi4lZx32EpFRjWgCzBrRTlWGahAElcGifJXaPeUqYjRISLOEpMMD4WEBSlZSs7gbCMqrEC2AWGD0z4WchwOEkNQ3GhpfqHNPEPKhYtijpCeZvr8WnFVGtAOyNmuDEeHRKzPfVOueRMjDIjG/yiRA4VSeXYYrzllDAdEOiNvQFFx0HaY5hNyhoRMQkv3sfoD4FiSNuhLvQ/tbkcDOOWdlkSOTpQMgRoR+mzdVXdtk4SjSFwBoKi3LR7OpCAIFDd9TvE8lU2mKxI7OnDUsIa6dAANES8VZGCgYA7qq09UaWR5CcVeRSYMzsMCt7PJmV54iVwgYQ5qnLNwAcRPIx7Cf5h/watE5TDNnomQsuedwhVQXI2LnlZaOdLrKWSeIAIVkbh65AgZBAhpGpQ+pVnRsq/KeADWldbRoPVXysUS4Z1UJ0yjyORJZw7zPo6ki8dGKzu4ZAowvRe6KUG8hqpG5p3o8NwPSWf2pi06hMp/LDYmy0OEWZYiwFHws9gsNtXL8wyml0j01fGxajR11Q6Gcz81xPlcEVA++jAPcPhK+YGFIyHlwPJD2JLTuSYYcIgN+6Nz7eIpU5nNJ7HETIqDtMOHR6U4au2FuPpV7hmIuJkhIQ6mHYqpAFo/XOEHxA2QTKeenELZOYu5TlXsO5GJAekiseISDbklvIU2RJ5MkRF73CcEmUTkM0JKiR2+G1O5p5wuoo/Q8uz/P56SN1Gi0XuFv3DFDULs0zYR0Jw0+Q2FPmqniMXIbE2RMi2PdSVRJIZb5cDKYOmKyeY9ms3Q1rk8+CAOVe0p1nO4JZCTME/u1quaJnNgXPRYvugOU2L2IpeA4IoYh7he6UrXKGmdxTXrx0tE9CxW9Q6mkYqBdeY1Gs/HUNjQhEJxcDZazxbo7pSVFmA93yT2vxmKJataP3MA3CnI6ItPyZDY0p4EeE0017bIcaixXbvIyg4WwWigVtQwV63NlyYdmqMZkKTgnY1zQSKdjfNwTbk/a2rNS243YgNJINjR7qqEZqsLVSHbPkZ97gpDWlYchFbKrZDsodoWHpmDMxNY3uSx63ubL1doulJYkJPXcLFkth5YTAvzQDDWbmGXpL4NKfO8RSgEQEq2TdYKnwt54PbJYEw/NVW5NTaQpych1clcptijuMduSsGyHvILCU1vQG88s53ai+WLSs53tyXcUKktCqr3uVqGUW6cpFYkYE/W6s21+jaK6e4JqUOBvN1mseLW45UQUJmgwGc6rnBYbjbfDC1gW71Tg60RcL5VXTLN8bIojkN+J3MihNLIJDaVb3cRxWR9jBtPVeuRuTK9FH41y/itk8j28tmYwZtIcO2KuPRM0hdBJrDphle21bGhmEch2sG4+7jXDLQMNidTVQ6n/Fik0zIZmb2yzJU4Oxr1kC0xYDa56A99tbr5xKC8saTG9Vg6YkGIzqhpKPY8qcIJLI5dXtaj0h+YqzKhgv6IJvY6b8C1DuTRykflwubLW1OXnkBWRUcUlDI8jQ3zDxHLgzCg41VsOQocFkmDbUOpx7It/avAer4plxaZlbGbfklA6qVR4OR3d64rZTShv+mlkOZ5dmT05WwfqBbpAG/bWV9yi1k4ApRxVXtEZTlTNsqGD55Nmr7u4MvdIHwdaxQIJCspP8udzBixZETuNak861JT481xlPG2ioDdZWOqT6H69QuUIhKac+R03pisBghUz9xS/ibu4iqTRQBS2q4jy+sS6dNAfLmElmi26VkT0O8qOrahaHScnOvT34gdPhulQn8T5ql4iTbV+I9H3jYsJkl4VY7sqSOuAfcWTi/rk3hKBYnndoO8zI/q+byFLaVdFsQg51Owq0ufjuDK1rpCI4rEiXOW1IJ6gtKvCdntXvclsOFysxzgfcNAq2+PI6hPnzvbYAt4OUNhVoQNmEeYbM3mcoHa1Jcx4aAYD63xCHuy8WbUVYCwsW4ewk8bv7tGTGA4dn80n08FkaF3vEuYTPeAWY1De9GMHSPm4SX3X5YxcgRk6zCc4cbemeltYcBRIfhLSd9KEmMJ2azzWaor5xLoUne1sTnWp3nYuKuao7ECNPN7o4dkr36k6m0+sGyHRFc5oQxlz2ygqIYLHK1ZRqP96HUIiegYaBQTM7NABl9FuPU0IiPTMvmqpj8YgONjnI6F7+dnPamoyNLcH5BHZSrlyrFEtY2/Akge4SZ7qJck7APKIEPg0fkiT5woFOnu7isgI50DmWSCKpQNCWyLSkkJ3oo4d7Kvip/zW+ahI9bq2Kuw9EZnPa3eF6DhVpOB2xPJSLBRixVL0otIukTciTVtMlRto4nzwuCQogDljNODWGbKlaJccaEtE6kVzU36hPtjniki8PFK8zlSker6bYT6ILC0zjjE6VqusWUNjbWUISwe78NkuKykshSl0coUlXdiUMWfvudOqT/RsJa4xhMUjKR+yCox062SDejuMPNbxVT7Y54sIfWNpuFNAh/KPHoge+Z4/hqFuOaPAQsIOxCV+MAU8U3Ca1hwQ0G1jlmUnfgdGIJRGxhi1Uxc9uXKLj/Rg39zLiJC5G88o7NaCzvGRFgpeKTi8OGrKh3YN6IrISkWfhWtE2hg21nbrol6IFVJwah590rQPQFdEWiraUqCS+mB4bbzevYt6ILJS0dlP4cVR7XGvfQE6Iia6d8C0QkOppkv246IeiAj0cd1+CElWqgml+wR0Q2SlouP5LRi66lC6Pxd1R2Q7xU6lIkVQDtz9WjCTsYvreZWKNDapXrPYP6CTFf1ScAilfcW72/t20UIcrMhKRYcUHEKpYqnyMIBuVoRSMbYTwrVyKD2EixZityLrfIezIwRDevn3cIAuVmSvrVhXwaEzxGWSQ7loIQ6IUCpaV7Bg+hRC6WEBncYiXGpZBYe3nYQljEO6aCFWRNcUnIZSbu48PKBDuNH+DINwGQmlXBZ7aBctxGpFWipqDkwVkpCLyi//1sGCmdisaPi5kHI/yNfUBdBuxWQBV+pXwWkoZVl6PVy0EKsV6c8w6AkhlLIjqjUCtCKyUlF7YApeHKVZaX1ctBALYqlU1FgxEUJp3QDtVqQpuO6QAwEiobReLlqIGdGagvNZaf0smIkZsfyLfaoeoFkpqi2gFRF2yZXLoRBK8927ugJaEPlf7JP4F8V3WaVcxzEIYkRkpaIiBQcLj8IaWzATM6KpVCQ5wTqsN6BtLMJV8io4DaVhjV20EBMiO34orVTQUCq+G1RDMSGyUlFYBYd38KOt33zZh5gQSz/uzqMvio+jYwA0IupScOT5vtChxYDISkV+FXxXJw53JSZHVZeKB1W3iugRSz+aHSo+PB7RI4alH3enhJoXi2stBivSH3dnP0yteeu23qJFVKTgyp9/q79oEdnBPkjBk+OYBiXRWxFKxb5o1WMTHSIjylfB615NmESHyEpFnIIfM6Aekf24+zQ8gmrCJDpE9v+AHTmgFpGViscOqEX0eKOy9qJz1Co/yVRTUSOKv9x41KJGZKXiBxAl4vFmMipRIB73RC+LtBEeHsWqmo8shcU1h99aPjZZBKVDFpqfPD9yma+S4tceUGL9qeVjlXg5mAbT3mSvfP8HFnk+uE1552wAAAAASUVORK5CYII=;" vertex="1" parent="1">
                    <mxGeometry x="884" y="371.7" width="68.5" height="68.5" as="geometry"/>
                </mxCell>
                <mxCell id="70" value="" style="shape=image;verticalLabelPosition=bottom;labelBackgroundColor=default;verticalAlign=top;aspect=fixed;imageAspect=0;image=data:image/png,iVBORw0KGgoAAAANSUhEUgAAAOEAAADhCAMAAAAJbSJIAAAAwFBMVEX///9Nmr9HoL5LnL9Jnr5Gob5Eo71Ap70+qbxCpb0/qLw8q7w6rbw5rrs/lLxEor32+vyXwddsqsnv9vlzrsvi7vTK3+o5krra6fGMu9OcxNlEl71ZocO51eTr8/ff7PPA2eenyt1/tM+Lw9Nkscevz+B7xs9Qt8JWtcSDxdG+3+ZbssWHwtLP5u1psskwnrl5uc5PpMGg1dtnwcrS6+4cq7aOztWu2uFnu8ldtMYTnLWi0txJq8DD4Oi53OWbzNlEfOBiAAASoUlEQVR4nN2d62LauBKAYy5JSVrHXIwBAQESups2icPpdttubu//Vke2NZJ1l0wAk/mVgmXPpxmNZiSZnpzsUeL//fjry5cf//6zz4fuUeY/fv78ksnPn399SMZvX0ry899Dq/P+8r+fXzjEr4dW6L3lXx4QI/6IDq3Tu8pXERDLXx8JUQX4oRC/qvg+EqIO8MMg6gE/CKJ6DH4gRDPgB0D8+jkTDV3+1ZEjFoBmOWpEF8CjRnQDPGLErxeOhH8fKaGrBT9f3B9a1WribMGL20OrWk1uXQE/fz5OH3UHvPh2aF0rye3FhSPiBS32vx6TLTNAKmbAz33S5tfFEYVUDtAiv0ibPv77aBB9AH9zjY4E8faTByH46Lfin0eB6AUIPhqRf386AkQvwN9Sq/ojegF+gsX9f1iruiP6AT6RVhH3aa0Rbz9l4kr4NzR7o03y9jVGLAA/OWIKPsqanv+pK+Lt+SdRTIC0pPhbbHVeUyveSnxGeQaKJ/m7elrx9vxctqFBXki7WAF4XkfEDDAXN75z6qO/JbpcaodIAd1Azz8BwC8RraaIt2eigmbOcyh75xhW3fSsVoh3qYZQg3pO07Xf2hZnZ9/rg3h3losFsixz0vLbfxq6XGqDSADP3Dlp2auFqxXiXedMEjPgH2jKxyf5NvUYi6//KQiNnP+Bj96f6dkK6Xw/KBuR+duZllGFewYlxcmzvVXnt+nR+5PX7x0XyEKoWe7s156d3R2Sqyz3d2eukLSkcLm482R87F4FO2vqovMbNPjuRPhieube5ZuDsz7DxW9OgGl8SKC7mxcxmP9jc9b/YCctdsDDku4bqix3aSd9fuoLn/afnlM9Y4cGju9ma3eIgMkPMS9ep3kfd+6uxG9e/qRaQ9Ky1zBmOyV5JNc/iw/ZvRSAOeR3aX8svlNPkSnEjbm6BzqipCQuxenNvq3IADM9np/mwvf9p+9lZ+2kWJhFTh6tbOTOpEte0n0jcoCFs47Ea15u8ouw5Tp3r/fx1cvTHxi0r6kNDe5LhsATHvM3e+STAAtnfRUvi687WTSSPu+bsco3JS3usr/3aMXr9PT0VKFO50101ujXzbXc/tGZEALMDX7g6f4Qc8BTBeRp2nl0ODnyovAAtZySgRudXmbPu9yTo1JAJWV6IzmlINGzswlpKCUP2w8iD6igTFPJWTm5dzZhJ32FJhRx9456nV5eXkqMPGWaGp31QTGGZclHHg2lBR+Wh10j5oCXasiS4jgqPGlVsRuR3pFML3cED0t7x45KAfWUwJmeXuuctaM34mmnfDPwyZvSQ9sP+wPUQRJ7nqapBvFaRai4xyULpRzi7hz1utFut0VGPeTpqUaV19SCBoRkLp2XOhZr0NiZFa/TdiESpIayoyGc36SmfqGALJQyvPYOEXMLtrWQCkx9aJ9fX8qTThkul5RE5Kd2CS+XnTgqB6iD5DAvdV6aSfSkMWR5xJFxfN2+FJ7d2AHidavREBl1lKC5LtIQuX8UGIW7tDfkwgfhwViT1rs7ag7Y8IDMvcyWwMXXaZr1h6Y9TH3tBo/X2AEiBVRCajEdtHjFzqqRNgml/YaIVyC+p6NygBpIFWUqreEoBDur3Di/44xc0JDw3tuKEqAOUlRUmX/M5Ur57bIt0mGBUDpT4DVarcfhbgG1kBkm1Td9k2+H3VIuPl43adaKu09KQ6n05Fara45iXtLVAZoogVX208cs9CuKj/tHsTUsYTxIfA+z9xyDV8hIaKF8FO7Wfyjs204fXkUt4ze+LUwWknu+9xsok5YVUU8p+NJrKfA32lLxEeHISr9ukN7p83yTd3RPkE2r5QQpczbWoDq2V3Qv2KiBDSmZY/TYhrBCGt+X8DYL8froPRz2qtlquUOWMFmGnJkGfyFZutHYrMWdj/nbJnvUZkK+eGkRPIV7XnVb7zJpTFotP8YCtNGArbF1W4YrOasYjaLFQ+uNmWbRwA9uNZaSew4HmVLNQXUyesteq1UFEqaKuW6YwoUP0j4oZ9j+RuWeyw1RqTpitwl/xS1OHAEhFsrhXmHwpeisHKK0ZTAaI6ZPc1BtLHZRcwx/r1sVGEGtmVuHXEsYOsm8uCzNalbEgE1EE6NBsyWKVWPStG+7kMrDwkWxOXVP4MOKVkDMALGA7/SRRGihpD766EyI7zcxOWsmo8eWxFcJcVIANlfwwUyNqKVsQWQf+gQnfLtHg7NGsw2nRpMJ8hyLxIK44Qw+Wsl+aqBswRCONn5zTJaVaZSKJy1OhyYnflYEC2YNqZ8aACXMVgN6dOwJ2KDZmiDRQGe+CohdVGrYg08XWj+VOVswwXn5aGFCan5B4i7G0uH5IU5Crh3klthPmyZPLQs1w8YHrZCNtrKNZj3U1OD5IPKAuB0kVVHxbxdCyIa61klFaIgG5sodz/R6QkfESRgI7abw1RDubgOE8DRyNDmVrv2Q13zS1EIGLogYMBOuZ7rwZXmAGvSk2f7GcJEsm7VjwF/0VIy53nZEAsgzIpjboil/U42qYIilD9/KZ2FpNG6iQOZzQGSAZcZgCp07SsSek1VtLsnFsfydViZm9xxK+P1lmbGktRmRAyxBIhrAJ+oxUAak6VrPMfI2NzNREaEUHCLUlF0YO2sByetsQpQAKWNC+3CqJCxhNiH0rl3mT9xsJa9krJJVmWeWdStCY2ndLndWSfSIKkACGQTUT03ROpMJuXDuMq80ZffMJ71mwsw6GtAUcrAQde4vp6EEqUPUAeaQiKbgSzMinVqMeWyBhzbSMhLMBRDcRuNp6XkBmi4lZx32EpFRjWgCzBrRTlWGahAElcGifJXaPeUqYjRISLOEpMMD4WEBSlZSs7gbCMqrEC2AWGD0z4WchwOEkNQ3GhpfqHNPEPKhYtijpCeZvr8WnFVGtAOyNmuDEeHRKzPfVOueRMjDIjG/yiRA4VSeXYYrzllDAdEOiNvQFFx0HaY5hNyhoRMQkv3sfoD4FiSNuhLvQ/tbkcDOOWdlkSOTpQMgRoR+mzdVXdtk4SjSFwBoKi3LR7OpCAIFDd9TvE8lU2mKxI7OnDUsIa6dAANES8VZGCgYA7qq09UaWR5CcVeRSYMzsMCt7PJmV54iVwgYQ5qnLNwAcRPIx7Cf5h/watE5TDNnomQsuedwhVQXI2LnlZaOdLrKWSeIAIVkbh65AgZBAhpGpQ+pVnRsq/KeADWldbRoPVXysUS4Z1UJ0yjyORJZw7zPo6ki8dGKzu4ZAowvRe6KUG8hqpG5p3o8NwPSWf2pi06hMp/LDYmy0OEWZYiwFHws9gsNtXL8wyml0j01fGxajR11Q6Gcz81xPlcEVA++jAPcPhK+YGFIyHlwPJD2JLTuSYYcIgN+6Nz7eIpU5nNJ7HETIqDtMOHR6U4au2FuPpV7hmIuJkhIQ6mHYqpAFo/XOEHxA2QTKeenELZOYu5TlXsO5GJAekiseISDbklvIU2RJ5MkRF73CcEmUTkM0JKiR2+G1O5p5wuoo/Q8uz/P56SN1Gi0XuFv3DFDULs0zYR0Jw0+Q2FPmqniMXIbE2RMi2PdSVRJIZb5cDKYOmKyeY9ms3Q1rk8+CAOVe0p1nO4JZCTME/u1quaJnNgXPRYvugOU2L2IpeA4IoYh7he6UrXKGmdxTXrx0tE9CxW9Q6mkYqBdeY1Gs/HUNjQhEJxcDZazxbo7pSVFmA93yT2vxmKJataP3MA3CnI6ItPyZDY0p4EeE0017bIcaixXbvIyg4WwWigVtQwV63NlyYdmqMZkKTgnY1zQSKdjfNwTbk/a2rNS243YgNJINjR7qqEZqsLVSHbPkZ97gpDWlYchFbKrZDsodoWHpmDMxNY3uSx63ubL1doulJYkJPXcLFkth5YTAvzQDDWbmGXpL4NKfO8RSgEQEq2TdYKnwt54PbJYEw/NVW5NTaQpych1clcptijuMduSsGyHvILCU1vQG88s53ai+WLSs53tyXcUKktCqr3uVqGUW6cpFYkYE/W6s21+jaK6e4JqUOBvN1mseLW45UQUJmgwGc6rnBYbjbfDC1gW71Tg60RcL5VXTLN8bIojkN+J3MihNLIJDaVb3cRxWR9jBtPVeuRuTK9FH41y/itk8j28tmYwZtIcO2KuPRM0hdBJrDphle21bGhmEch2sG4+7jXDLQMNidTVQ6n/Fik0zIZmb2yzJU4Oxr1kC0xYDa56A99tbr5xKC8saTG9Vg6YkGIzqhpKPY8qcIJLI5dXtaj0h+YqzKhgv6IJvY6b8C1DuTRykflwubLW1OXnkBWRUcUlDI8jQ3zDxHLgzCg41VsOQocFkmDbUOpx7It/avAer4plxaZlbGbfklA6qVR4OR3d64rZTShv+mlkOZ5dmT05WwfqBbpAG/bWV9yi1k4ApRxVXtEZTlTNsqGD55Nmr7u4MvdIHwdaxQIJCspP8udzBixZETuNak861JT481xlPG2ioDdZWOqT6H69QuUIhKac+R03pisBghUz9xS/ibu4iqTRQBS2q4jy+sS6dNAfLmElmi26VkT0O8qOrahaHScnOvT34gdPhulQn8T5ql4iTbV+I9H3jYsJkl4VY7sqSOuAfcWTi/rk3hKBYnndoO8zI/q+byFLaVdFsQg51Owq0ufjuDK1rpCI4rEiXOW1IJ6gtKvCdntXvclsOFysxzgfcNAq2+PI6hPnzvbYAt4OUNhVoQNmEeYbM3mcoHa1Jcx4aAYD63xCHuy8WbUVYCwsW4ewk8bv7tGTGA4dn80n08FkaF3vEuYTPeAWY1De9GMHSPm4SX3X5YxcgRk6zCc4cbemeltYcBRIfhLSd9KEmMJ2azzWaor5xLoUne1sTnWp3nYuKuao7ECNPN7o4dkr36k6m0+sGyHRFc5oQxlz2ygqIYLHK1ZRqP96HUIiegYaBQTM7NABl9FuPU0IiPTMvmqpj8YgONjnI6F7+dnPamoyNLcH5BHZSrlyrFEtY2/Akge4SZ7qJck7APKIEPg0fkiT5woFOnu7isgI50DmWSCKpQNCWyLSkkJ3oo4d7Kvip/zW+ahI9bq2Kuw9EZnPa3eF6DhVpOB2xPJSLBRixVL0otIukTciTVtMlRto4nzwuCQogDljNODWGbKlaJccaEtE6kVzU36hPtjniki8PFK8zlSker6bYT6ILC0zjjE6VqusWUNjbWUISwe78NkuKykshSl0coUlXdiUMWfvudOqT/RsJa4xhMUjKR+yCox062SDejuMPNbxVT7Y54sIfWNpuFNAh/KPHoge+Z4/hqFuOaPAQsIOxCV+MAU8U3Ca1hwQ0G1jlmUnfgdGIJRGxhi1Uxc9uXKLj/Rg39zLiJC5G88o7NaCzvGRFgpeKTi8OGrKh3YN6IrISkWfhWtE2hg21nbrol6IFVJwah590rQPQFdEWiraUqCS+mB4bbzevYt6ILJS0dlP4cVR7XGvfQE6Iia6d8C0QkOppkv246IeiAj0cd1+CElWqgml+wR0Q2SlouP5LRi66lC6Pxd1R2Q7xU6lIkVQDtz9WjCTsYvreZWKNDapXrPYP6CTFf1ScAilfcW72/t20UIcrMhKRYcUHEKpYqnyMIBuVoRSMbYTwrVyKD2EixZityLrfIezIwRDevn3cIAuVmSvrVhXwaEzxGWSQ7loIQ6IUCpaV7Bg+hRC6WEBncYiXGpZBYe3nYQljEO6aCFWRNcUnIZSbu48PKBDuNH+DINwGQmlXBZ7aBctxGpFWipqDkwVkpCLyi//1sGCmdisaPi5kHI/yNfUBdBuxWQBV+pXwWkoZVl6PVy0EKsV6c8w6AkhlLIjqjUCtCKyUlF7YApeHKVZaX1ctBALYqlU1FgxEUJp3QDtVqQpuO6QAwEiobReLlqIGdGagvNZaf0smIkZsfyLfaoeoFkpqi2gFRF2yZXLoRBK8927ugJaEPlf7JP4F8V3WaVcxzEIYkRkpaIiBQcLj8IaWzATM6KpVCQ5wTqsN6BtLMJV8io4DaVhjV20EBMiO34orVTQUCq+G1RDMSGyUlFYBYd38KOt33zZh5gQSz/uzqMvio+jYwA0IupScOT5vtChxYDISkV+FXxXJw53JSZHVZeKB1W3iugRSz+aHSo+PB7RI4alH3enhJoXi2stBivSH3dnP0yteeu23qJFVKTgyp9/q79oEdnBPkjBk+OYBiXRWxFKxb5o1WMTHSIjylfB615NmESHyEpFnIIfM6Aekf24+zQ8gmrCJDpE9v+AHTmgFpGViscOqEX0eKOy9qJz1Co/yVRTUSOKv9x41KJGZKXiBxAl4vFmMipRIB73RC+LtBEeHsWqmo8shcU1h99aPjZZBKVDFpqfPD9yma+S4tceUGL9qeVjlXg5mAbT3mSvfP8HFnk+uE1552wAAAAASUVORK5CYII=;" vertex="1" parent="1">
                    <mxGeometry x="488.25" y="371.5" width="68.5" height="68.5" as="geometry"/>
                </mxCell>
            </root>
        </mxGraphModel>
    </diagram>
</mxfile>